<?xml version="1.0" standalone="no"?>
<!DOCTYPE svg PUBLIC "-//W3C//DTD SVG 20010904//EN"
 "http://www.w3.org/TR/2001/REC-SVG-20010904/DTD/svg10.dtd">
<svg version="1.0" xmlns="http://www.w3.org/2000/svg"
 width="720.000000pt" height="720.000000pt" viewBox="0 0 720.000000 720.000000"
 preserveAspectRatio="xMidYMid meet">
<metadata>
Created by potrace 1.14, written by Peter Selinger 2001-2017
</metadata>
<g transform="translate(0.000000,720.000000) scale(0.100000,-0.100000)"
fill="#000000" stroke="none">
<path d="M3797 6444 c-1 -1 -29 -5 -62 -8 -67 -7 -123 -13 -205 -22 -30 -3
-66 -7 -80 -9 -14 -1 -32 -5 -40 -8 -8 -3 -33 -9 -55 -12 -44 -7 -69 -12 -72
-15 -2 -2 -6 -3 -10 -4 -5 -1 -24 -9 -43 -18 -34 -15 -57 -24 -72 -27 -33 -6
-198 -117 -198 -133 0 -5 -4 -7 -8 -4 -11 7 -64 -29 -55 -37 3 -4 1 -7 -5 -7
-18 0 -141 -130 -184 -195 -22 -33 -46 -64 -52 -70 -19 -16 -147 -290 -140
-298 2 -2 -2 -23 -10 -45 -9 -23 -13 -42 -11 -42 3 0 0 -12 -6 -27 -6 -16 -12
-47 -15 -69 -2 -23 -6 -55 -8 -70 -8 -43 -19 -180 -20 -251 -1 -35 -3 -63 -6
-63 -13 0 -1 -270 16 -370 4 -24 11 -123 18 -247 l4 -62 -39 26 c-29 19 -47
24 -76 21 -53 -6 -62 -10 -89 -34 -21 -19 -67 -108 -59 -116 2 -1 5 -34 8 -72
3 -41 11 -72 19 -77 9 -6 9 -9 1 -9 -11 0 -11 -18 1 -58 3 -9 7 -34 10 -55 4
-21 10 -46 15 -55 5 -9 11 -30 14 -47 5 -27 19 -75 35 -115 3 -8 6 -18 6 -21
2 -15 62 -134 69 -137 4 -2 5 -8 1 -13 -3 -5 0 -9 5 -9 6 0 11 -5 11 -10 0 -6
10 -21 22 -34 36 -37 58 -65 58 -75 0 -16 101 -62 133 -61 47 3 54 1 55 -12 0
-7 6 -31 12 -53 6 -22 13 -51 16 -64 3 -13 11 -39 19 -57 8 -19 11 -34 8 -34
-3 0 0 -7 7 -15 7 -8 9 -15 5 -15 -3 0 4 -17 17 -37 12 -21 21 -38 18 -38 -5
0 72 -158 81 -165 3 -3 14 -21 24 -40 10 -18 23 -40 29 -47 29 -32 36 -43 36
-53 0 -5 5 -10 10 -10 6 0 10 -5 10 -11 0 -9 44 -60 113 -130 15 -15 27 -31
28 -36 0 -4 21 -27 47 -51 26 -23 80 -74 121 -112 41 -39 79 -70 83 -70 5 0
14 -5 21 -10 7 -6 21 -18 32 -26 11 -9 15 -13 8 -10 -8 4 -11 -3 -11 -21 1
-56 -2 -70 -22 -91 -12 -12 -17 -22 -13 -22 4 0 -2 -7 -13 -15 -10 -8 -15 -15
-11 -15 15 0 -49 -61 -69 -65 -10 -2 -20 -4 -21 -5 -2 -2 -6 -3 -10 -4 -11 -3
-82 -36 -115 -53 -16 -8 -28 -12 -28 -9 0 6 -66 -22 -185 -79 -102 -49 -190
-87 -190 -83 0 1 -11 -5 -25 -15 -13 -9 -32 -17 -40 -17 -9 0 -21 -5 -28 -12
-6 -6 -20 -13 -29 -14 -10 -1 -48 -13 -85 -27 -38 -14 -68 -22 -68 -19 0 4 -4
1 -8 -5 -4 -7 -17 -14 -27 -16 -11 -2 -31 -9 -45 -15 -26 -11 -61 -24 -70 -26
-3 -1 -15 -7 -27 -14 -13 -7 -23 -10 -23 -7 0 3 -12 -3 -27 -12 -15 -10 -30
-17 -33 -16 -9 5 -40 -8 -40 -16 0 -5 -13 -14 -30 -21 -16 -7 -30 -16 -30 -21
0 -5 -7 -9 -15 -9 -8 0 -15 -4 -15 -10 0 -5 -5 -10 -10 -10 -6 0 -18 -6 -26
-13 -47 -38 -168 -167 -157 -167 3 0 -1 -8 -9 -17 -33 -40 -128 -248 -129
-283 0 -17 -13 -57 -23 -69 -6 -8 -9 -15 -7 -15 3 -1 -6 -71 -14 -111 -2 -5
-10 -46 -19 -90 -9 -44 -19 -91 -22 -105 -3 -14 -7 -36 -8 -50 -1 -14 -5 -30
-8 -35 -8 -13 -39 -125 -42 -150 -1 -11 -5 -25 -9 -32 -4 -6 -8 -23 -9 -37 -1
-14 -5 -26 -9 -26 -4 0 -10 -19 -14 -42 -5 -24 -9 -45 -10 -48 0 -3 -9 -32
-20 -65 -10 -33 -20 -66 -21 -74 -1 -8 -6 -17 -11 -20 -7 -5 -10 -15 -16 -56
-1 -7 791 -11 2355 -13 l2357 -2 -10 32 c-6 18 -13 40 -16 48 -8 21 -11 28
-27 85 -8 28 -24 82 -36 120 -12 39 -23 77 -25 85 -1 8 -10 42 -19 75 -9 33
-19 71 -22 85 -2 14 -9 36 -14 50 -20 54 -52 185 -70 280 -5 25 -10 56 -13 70
-5 28 -26 107 -35 130 -3 8 -7 26 -9 40 -2 13 -9 30 -15 37 -6 7 -7 13 -3 13
4 0 2 6 -4 13 -6 8 -8 17 -4 20 3 4 2 7 -3 7 -5 0 -20 25 -34 55 -14 30 -28
55 -32 55 -5 0 -8 6 -8 13 0 12 -49 74 -106 134 -17 17 -29 35 -25 39 3 4 1 4
-5 1 -7 -4 -17 0 -24 8 -6 8 -32 26 -56 40 -24 14 -44 30 -44 34 0 8 -250 121
-277 125 -7 1 -16 5 -19 9 -4 4 -13 7 -19 7 -7 0 -30 8 -51 17 -22 9 -41 17
-44 18 -67 13 -321 119 -328 137 -2 4 -9 8 -16 8 -7 0 -38 15 -69 34 -31 19
-57 33 -57 31 0 -2 -43 14 -95 35 -52 21 -95 36 -95 32 0 -4 -4 -2 -8 5 -4 6
-21 13 -38 16 -47 7 -68 22 -100 69 -16 24 -35 49 -41 56 -14 15 -21 39 -27
94 -2 30 1 39 15 43 11 4 19 11 19 16 0 5 6 9 13 9 11 0 76 57 202 177 22 21
58 60 80 86 22 27 57 66 78 87 20 20 37 43 37 49 0 7 5 9 10 6 6 -3 10 0 10 8
0 8 15 34 32 58 99 134 205 378 235 541 5 27 33 61 33 41 0 -12 73 -1 112 17
14 7 31 23 38 36 7 13 17 21 22 18 4 -3 8 -1 8 4 0 8 23 39 53 72 27 29 110
206 123 265 2 6 12 42 23 80 11 39 22 86 24 105 3 19 6 35 7 35 3 0 10 39 15
85 12 105 14 150 5 150 -6 0 -9 3 -8 8 5 21 -16 74 -35 84 -12 6 -25 15 -28
20 -3 5 -19 11 -35 14 -16 2 -34 7 -41 9 -7 2 -15 0 -19 -6 -3 -6 -12 -8 -20
-5 -8 3 -14 1 -14 -4 0 -6 -6 -10 -14 -10 -8 0 -22 -10 -31 -22 -16 -22 -16
-21 -10 22 4 25 8 77 9 116 2 39 6 76 10 82 3 6 2 13 -4 17 -6 4 -7 11 -4 17
4 5 8 27 11 47 2 20 8 61 13 91 11 71 3 386 -14 530 -18 152 -22 178 -38 235
-5 22 -11 45 -13 50 -7 34 -19 71 -24 80 -3 6 -6 12 -6 15 -1 3 -12 28 -25 55
-13 28 -25 55 -26 60 -1 6 -11 26 -23 45 -12 19 -24 43 -27 53 -4 9 -10 17
-14 17 -4 0 -13 14 -20 30 -7 17 -16 30 -20 30 -3 0 -13 12 -21 28 -13 26
-179 196 -211 217 -68 44 -118 81 -118 88 0 4 -5 5 -10 2 -6 -3 -13 1 -16 9
-3 9 -10 16 -16 16 -5 0 -53 19 -106 41 -89 39 -123 49 -177 53 -11 0 -22 4
-25 7 -9 12 -79 22 -247 34 -40 2 -87 7 -105 11 -37 7 -117 12 -121 8z"/>
</g>
</svg>
