<?xml version="1.0" standalone="no"?>
<!DOCTYPE svg PUBLIC "-//W3C//DTD SVG 20010904//EN"
 "http://www.w3.org/TR/2001/REC-SVG-20010904/DTD/svg10.dtd">
<svg version="1.0" xmlns="http://www.w3.org/2000/svg"
 width="757.000000pt" height="757.000000pt" viewBox="0 0 757.000000 757.000000"
 preserveAspectRatio="xMidYMid meet">
<metadata>
Created by potrace 1.14, written by Peter Selinger 2001-2017
</metadata>
<g transform="translate(0.000000,757.000000) scale(0.100000,-0.100000)"
fill="#000000" stroke="none">
<path d="M3750 7559 c0 -4 6 -10 13 -13 6 -2 1 -3 -13 -2 -14 2 -31 -4 -38
-13 -8 -9 -10 -10 -6 -2 5 9 3 12 -4 7 -7 -4 -12 -15 -12 -24 0 -15 -2 -15
-10 -2 -5 8 -10 10 -10 4 0 -5 -15 -21 -32 -34 -18 -13 -27 -17 -20 -8 10 13
10 18 1 24 -7 4 -10 3 -6 -2 3 -5 -1 -18 -9 -29 -8 -10 -14 -15 -14 -11 0 4
-12 -1 -27 -12 -16 -11 -36 -18 -46 -17 -9 2 -15 0 -12 -4 2 -5 -2 -17 -10
-27 -15 -18 -15 -18 -9 1 6 20 5 20 -10 1 -9 -11 -19 -17 -22 -13 -4 4 -13 -2
-21 -13 -8 -11 -21 -20 -29 -20 -9 0 -27 -9 -41 -20 -14 -11 -30 -17 -37 -13
-6 3 -8 3 -4 -2 11 -12 -11 -35 -28 -28 -7 3 -17 -2 -20 -11 -5 -13 -9 -14
-20 -5 -12 10 -13 9 -8 -4 4 -12 1 -15 -15 -12 -11 2 -20 0 -18 -5 1 -4 -2 -7
-6 -6 -5 0 -13 -7 -18 -17 -6 -9 -14 -15 -20 -12 -5 4 -9 1 -9 -5 0 -6 -4 -9
-9 -6 -5 3 -11 -1 -15 -9 -3 -8 -15 -15 -26 -15 -25 0 -52 -24 -42 -36 4 -5
-1 -2 -11 6 -15 11 -18 11 -15 0 2 -8 -3 -14 -10 -15 -7 0 -17 -6 -21 -14 -5
-8 -16 -11 -26 -8 -9 4 -14 3 -11 -2 3 -5 -10 -16 -29 -25 -20 -10 -33 -21
-30 -26 3 -5 1 -12 -5 -15 -6 -4 -10 -3 -9 2 4 24 -4 23 -27 -3 -20 -22 -25
-24 -20 -9 6 19 5 19 -8 3 -7 -10 -16 -18 -20 -18 -3 0 -15 -9 -26 -20 -17
-17 -24 -19 -43 -9 -20 11 -21 11 -8 -4 12 -16 9 -21 -11 -18 -5 0 -8 -4 -8
-9 0 -6 -5 -10 -11 -10 -5 0 -7 6 -3 13 4 7 3 9 -2 4 -5 -5 -9 -14 -9 -19 0
-6 -6 -13 -14 -16 -9 -3 -11 0 -7 9 4 8 -1 4 -10 -8 -9 -13 -25 -23 -36 -23
-10 0 -17 -4 -13 -9 3 -5 1 -12 -5 -16 -5 -3 -10 -1 -10 5 0 7 -7 5 -16 -4 -8
-9 -22 -16 -29 -16 -8 0 -17 -5 -21 -12 -5 -7 -3 -8 6 -3 8 5 11 4 6 -3 -3 -6
-15 -9 -26 -7 -11 2 -23 -1 -26 -7 -5 -7 -2 -8 6 -3 9 5 11 4 6 -3 -4 -7 -16
-12 -26 -12 -10 0 -22 -5 -25 -10 -4 -6 -11 -8 -16 -5 -5 4 -6 -2 -2 -12 3
-10 3 -15 -2 -11 -4 4 -14 3 -22 -4 -11 -9 -12 -7 -6 7 6 17 5 17 -14 -1 -11
-10 -18 -22 -16 -26 2 -4 -7 -10 -19 -14 -13 -4 -26 -12 -30 -18 -6 -8 -8 -7
-8 2 0 6 -5 12 -11 12 -5 0 -8 -4 -5 -9 3 -5 -2 -15 -11 -22 -14 -12 -16 -12
-8 1 7 12 6 13 -7 3 -8 -7 -19 -9 -23 -5 -5 4 -5 1 -1 -5 4 -7 2 -13 -4 -13
-6 0 -8 -5 -4 -12 5 -8 2 -8 -10 1 -15 12 -17 12 -14 0 2 -9 -4 -13 -19 -12
-16 2 -21 -2 -17 -11 4 -11 -2 -14 -20 -12 -14 2 -23 0 -21 -4 2 -4 -3 -16
-11 -26 -14 -17 -15 -17 -10 -1 5 17 5 17 -19 0 -13 -10 -23 -23 -20 -30 2 -7
-2 -10 -10 -6 -8 3 -12 10 -8 16 3 6 1 7 -5 3 -6 -4 -9 -13 -5 -21 3 -8 0 -15
-6 -15 -6 0 -11 5 -11 12 0 6 -3 8 -6 5 -12 -11 -12 -102 0 -116 9 -12 8 -13
-4 -6 -13 8 -13 7 -1 -8 10 -13 10 -17 1 -17 -9 0 -9 -4 1 -17 10 -11 10 -14
2 -9 -16 9 -17 -6 -2 -21 8 -8 8 -13 0 -17 -15 -10 -14 -29 2 -20 10 6 10 4 0
-7 -16 -16 -17 -33 -1 -23 7 5 8 3 3 -5 -11 -19 -15 -80 -5 -86 9 -6 7 -26 -6
-59 -5 -12 -4 -17 3 -13 5 3 10 0 10 -8 0 -8 -4 -12 -7 -10 -10 6 -7 -57 3
-72 5 -7 5 -19 0 -25 -10 -17 -12 -128 -2 -134 8 -5 6 -26 -7 -58 -5 -12 -4
-17 3 -13 5 3 10 0 10 -8 0 -8 -4 -12 -7 -10 -10 6 -7 -57 3 -73 5 -7 5 -18 0
-25 -11 -15 -10 -77 1 -96 5 -7 4 -16 -1 -20 -12 -8 -11 -81 1 -100 7 -11 6
-12 -5 -6 -12 8 -12 6 0 -8 10 -13 10 -17 1 -17 -9 0 -9 -4 1 -17 10 -11 10
-14 2 -9 -16 9 -17 -6 -2 -21 8 -8 8 -13 0 -17 -15 -10 -14 -29 2 -20 10 6 10
4 0 -7 -15 -16 -17 -33 -3 -24 7 4 7 -3 0 -19 -7 -19 -6 -26 3 -26 8 0 8 -3 2
-8 -13 -8 -13 -22 -1 -41 6 -9 5 -12 -1 -8 -6 4 -10 -6 -11 -23 0 -16 4 -32 9
-35 5 -4 5 -13 -1 -24 -6 -12 -5 -22 3 -30 8 -8 9 -14 1 -19 -13 -8 -13 -81 0
-101 7 -11 6 -12 -5 -6 -12 8 -12 6 0 -8 10 -13 10 -17 1 -17 -9 0 -9 -4 1
-17 10 -11 10 -14 2 -9 -16 9 -17 -6 -2 -21 8 -8 8 -13 0 -17 -15 -10 -14 -29
2 -20 10 6 10 4 0 -7 -15 -16 -17 -33 -3 -24 7 4 7 -3 0 -19 -7 -19 -6 -26 3
-26 8 0 8 -3 2 -8 -13 -8 -13 -22 -1 -41 6 -9 5 -12 -1 -8 -13 8 -14 -44 -1
-60 6 -8 3 -15 -9 -22 -17 -10 -17 -10 0 -11 14 0 16 -4 7 -19 -13 -25 -13
-34 1 -25 8 4 8 0 0 -15 -9 -16 -9 -21 1 -21 9 0 9 -3 -2 -10 -13 -9 -13 -10
0 -10 12 0 12 -2 2 -9 -11 -6 -10 -10 3 -15 13 -5 14 -10 7 -19 -8 -10 -6 -13
11 -14 12 -1 23 -7 25 -13 2 -5 12 -10 22 -10 9 0 23 -7 30 -15 7 -8 16 -12
21 -9 5 3 9 0 9 -5 0 -6 7 -11 16 -11 9 0 18 -9 21 -20 3 -11 10 -20 15 -20 5
0 6 5 3 10 -11 18 4 10 29 -15 14 -14 39 -28 56 -31 16 -4 27 -10 24 -15 -3
-5 3 -9 14 -9 11 0 35 -11 55 -24 19 -13 37 -22 40 -20 2 3 10 -4 18 -13 13
-17 13 -17 -6 -3 -18 14 -19 14 -7 -2 8 -9 20 -14 28 -11 8 3 14 -1 14 -8 0
-7 3 -10 6 -6 4 3 14 -2 23 -11 10 -11 12 -12 6 -2 -8 13 -8 13 6 3 9 -7 19
-10 23 -6 4 4 4 0 1 -9 -4 -9 -1 -19 6 -24 8 -4 10 -3 5 4 -4 7 -1 12 8 12 9
0 15 -5 13 -12 -1 -7 4 -13 11 -14 6 -1 17 -2 23 -3 5 0 7 -6 3 -13 -5 -7 0
-9 14 -6 15 4 23 0 27 -13 4 -10 15 -19 25 -19 10 0 21 -7 24 -16 3 -8 2 -12
-4 -9 -14 9 -12 -8 3 -24 10 -11 9 -12 -2 -6 -11 6 -13 4 -8 -8 3 -10 2 -17
-4 -17 -12 0 -32 -48 -32 -77 0 -12 -3 -21 -6 -18 -4 2 -13 -5 -20 -17 -7 -11
-8 -17 -2 -14 7 4 8 1 5 -8 -3 -9 -10 -14 -14 -11 -5 3 -11 1 -15 -5 -3 -5 0
-10 7 -10 10 0 10 -2 -1 -9 -8 -5 -10 -14 -5 -22 6 -10 3 -10 -11 1 -17 14
-18 13 -12 -2 3 -10 3 -18 -2 -18 -5 0 -11 -9 -14 -21 -3 -11 -15 -23 -27 -26
-13 -4 -19 -11 -15 -20 3 -10 1 -13 -9 -10 -10 4 -13 1 -10 -7 4 -9 -3 -13
-20 -11 -14 2 -26 -1 -26 -6 0 -6 -5 -7 -10 -4 -6 4 -8 10 -6 14 3 4 -4 12
-14 19 -15 9 -19 9 -16 -1 1 -6 1 -9 -1 -4 -3 4 -12 7 -21 7 -15 0 -15 2 -2
10 12 8 11 10 -7 10 -13 0 -23 4 -23 10 0 5 -8 7 -17 3 -10 -3 -15 -3 -11 2
12 12 -11 35 -29 28 -9 -3 -25 5 -39 21 -14 14 -31 26 -39 26 -8 0 -24 10 -35
23 -19 20 -21 20 -14 2 5 -17 4 -16 -11 3 -9 13 -23 21 -31 18 -12 -5 -18 5
-16 25 1 4 -8 4 -20 1 -16 -4 -19 -2 -13 8 6 10 4 12 -8 7 -10 -4 -20 0 -26
11 -8 14 -10 14 -11 2 0 -13 -1 -13 -10 0 -6 9 -5 17 3 23 8 6 5 7 -7 3 -11
-4 -26 0 -35 8 -9 8 -23 16 -31 18 -8 2 -21 11 -28 21 -7 9 -22 17 -33 17 -14
0 -18 4 -13 13 6 9 5 9 -7 0 -17 -14 -39 0 -39 25 0 8 -5 10 -12 6 -7 -5 -21
-9 -30 -9 -15 -1 -16 1 -5 14 11 14 10 15 -8 1 -11 -8 -28 -23 -38 -35 -10
-11 -16 -14 -12 -7 3 6 2 12 -3 12 -6 0 -13 -7 -16 -16 -3 -8 -10 -12 -16 -9
-5 3 -10 0 -10 -8 0 -8 -8 -14 -17 -13 -10 0 -17 -4 -16 -10 1 -7 -5 -11 -15
-10 -9 0 -16 -5 -14 -12 2 -10 -2 -10 -19 -1 -12 6 -19 7 -16 2 3 -4 -1 -13
-8 -20 -11 -10 -15 -10 -18 0 -3 7 -6 3 -6 -7 -1 -11 -4 -16 -8 -13 -3 4 -12
-1 -20 -11 -8 -9 -12 -11 -8 -5 4 9 1 11 -9 7 -9 -3 -13 -10 -10 -15 5 -8 -10
-13 -20 -6 -2 1 -12 -7 -22 -18 -11 -12 -15 -15 -10 -8 6 10 4 12 -8 7 -9 -3
-16 -14 -16 -23 0 -14 -2 -14 -10 -1 -8 13 -10 13 -10 -1 0 -9 -7 -20 -16 -23
-15 -6 -15 -4 -3 10 13 16 12 16 -8 4 -12 -8 -21 -16 -20 -19 1 -4 -3 -7 -8
-9 -6 -2 -19 -11 -29 -20 -15 -13 -18 -14 -12 -2 6 11 4 11 -6 -1 -13 -16 -19
-19 -40 -19 -9 0 -8 -4 2 -11 12 -8 10 -9 -10 -7 -15 2 -24 -2 -23 -9 2 -8 -4
-10 -14 -6 -12 5 -14 3 -8 -7 6 -10 4 -12 -9 -7 -13 5 -17 3 -13 -7 4 -10 1
-13 -7 -10 -8 3 -17 1 -21 -5 -3 -6 -16 -11 -28 -11 -18 0 -20 -2 -7 -11 12
-9 11 -10 -7 -6 -15 3 -23 -1 -27 -16 -4 -18 -7 -19 -22 -6 -15 12 -17 12 -9
0 6 -11 4 -13 -8 -8 -10 4 -16 2 -14 -6 1 -7 -8 -11 -23 -9 -19 2 -22 0 -10
-8 13 -8 12 -10 -3 -10 -10 0 -16 -4 -13 -9 9 -14 -20 -21 -34 -8 -10 9 -11 9
-6 0 5 -8 1 -13 -9 -13 -9 0 -13 -4 -10 -10 3 -5 -1 -11 -9 -11 -9 -1 -21 -2
-27 -3 -6 0 -17 -9 -24 -19 -10 -13 -14 -15 -18 -5 -3 8 -6 6 -6 -5 -1 -10 -5
-15 -11 -12 -5 3 -10 -2 -10 -11 0 -16 -1 -16 -15 2 -13 16 -14 16 -9 2 4 -11
1 -18 -6 -18 -6 0 -9 -4 -5 -10 3 -5 -7 -8 -24 -5 -24 3 -29 0 -24 -13 4 -9 3
-14 -2 -10 -4 4 -14 0 -22 -10 -9 -10 -11 -11 -7 -2 7 12 5 13 -8 3 -8 -7 -19
-9 -23 -5 -5 4 -5 -1 -2 -11 4 -11 3 -16 -3 -12 -6 3 -10 1 -10 -5 0 -6 -3 -9
-7 -7 -5 3 -24 -4 -43 -14 -19 -11 -30 -19 -25 -19 6 0 -3 -7 -19 -15 -15 -8
-32 -13 -36 -10 -4 3 -10 -2 -14 -10 -3 -9 -12 -12 -23 -8 -10 3 -15 3 -11 -2
4 -4 1 -14 -7 -21 -17 -17 -28 -18 -20 -1 4 6 -2 1 -13 -12 -12 -15 -25 -22
-36 -18 -10 4 -16 1 -16 -8 0 -7 -5 -17 -12 -21 -7 -4 -8 -3 -4 4 5 8 2 10 -8
6 -9 -3 -14 -10 -11 -14 7 -11 -24 -22 -38 -13 -6 4 -8 0 -4 -9 4 -12 1 -14
-14 -11 -10 3 -19 0 -19 -6 0 -6 -7 -11 -15 -11 -8 0 -15 -5 -15 -11 0 -5 5
-7 12 -3 7 4 8 3 4 -4 -5 -9 -13 -9 -28 -1 -11 6 -18 7 -15 2 8 -13 -38 -37
-52 -29 -7 5 -9 1 -5 -8 4 -11 0 -16 -14 -16 -12 0 -24 -5 -28 -12 -5 -7 -3
-8 6 -3 9 5 11 4 6 -4 -5 -8 -12 -9 -20 -2 -14 12 -49 -22 -38 -35 4 -5 -1 -2
-10 5 -17 12 -18 -41 -18 -1014 0 -688 3 -1024 10 -1020 5 3 10 1 10 -5 0 -6
5 -8 10 -5 6 3 13 -1 16 -9 3 -9 18 -16 33 -16 20 0 23 -2 11 -10 -12 -8 -10
-10 10 -11 14 -1 29 -1 34 0 5 1 6 -5 3 -13 -7 -18 9 -31 18 -16 4 6 11 8 16
4 5 -3 7 -10 4 -15 -3 -5 2 -6 11 -2 12 4 15 3 10 -5 -7 -11 7 -16 41 -15 7 1
10 -3 7 -8 -3 -5 2 -9 11 -9 9 0 14 -4 11 -9 -3 -5 1 -11 9 -15 8 -3 15 0 15
7 0 8 4 7 9 -3 6 -8 7 -19 4 -25 -4 -5 -3 -7 2 -3 4 4 15 2 23 -5 13 -10 14
-9 8 3 -5 8 3 3 18 -13 28 -29 47 -38 26 -12 -11 13 -10 14 4 9 9 -3 16 -12
16 -20 0 -8 9 -14 20 -14 11 0 20 -4 20 -10 0 -5 9 -10 19 -10 10 0 21 -7 25
-15 3 -8 12 -15 21 -15 8 0 14 -5 13 -12 -2 -7 6 -12 17 -12 11 0 26 -7 33
-16 8 -8 11 -9 7 -2 -11 21 7 13 33 -16 13 -15 21 -20 17 -12 -4 10 -1 9 8 -2
8 -10 17 -15 20 -11 4 3 7 0 7 -8 0 -12 2 -11 11 1 9 12 10 10 6 -8 -5 -19 -3
-21 9 -11 9 8 14 8 14 1 0 -6 10 -16 21 -23 17 -9 20 -8 14 3 -3 7 0 5 8 -5 8
-9 19 -17 26 -17 6 0 11 -5 11 -11 0 -5 9 -9 20 -7 10 2 20 -1 20 -7 1 -5 12
-16 26 -23 13 -7 24 -18 24 -25 0 -8 4 -6 10 3 6 9 10 10 10 3 0 -7 10 -17 21
-24 17 -9 20 -8 14 2 -5 8 -4 10 3 5 7 -4 12 -15 12 -24 0 -12 3 -13 8 -5 6 9
12 7 22 -7 11 -15 17 -17 27 -8 11 9 13 8 11 -3 -2 -8 3 -13 10 -11 8 1 11 -2
8 -7 -4 -5 -2 -12 4 -16 5 -3 10 0 10 7 1 9 5 7 14 -4 7 -10 20 -18 29 -18 9
0 19 -4 22 -10 4 -6 -1 -7 -12 -3 -10 3 -15 3 -11 -1 6 -7 30 -14 56 -15 7 -1
11 -5 8 -10 -3 -5 1 -12 10 -15 10 -4 13 -2 8 7 -5 8 -2 8 9 -2 9 -7 14 -18
11 -23 -4 -6 2 -8 15 -3 15 5 21 2 21 -10 0 -9 4 -13 10 -10 5 3 10 1 10 -6 0
-8 4 -8 15 1 13 11 14 10 9 -5 -5 -12 -4 -16 3 -12 6 4 16 0 23 -8 7 -8 19
-15 27 -15 9 0 11 -5 7 -12 -5 -8 0 -7 11 2 11 9 16 10 11 2 -4 -7 -1 -12 9
-12 8 0 18 -7 21 -15 4 -8 10 -12 15 -9 5 3 9 0 9 -5 0 -6 3 -10 8 -10 20 3
32 -2 32 -16 0 -9 6 -12 15 -9 8 4 15 1 15 -6 0 -10 3 -10 15 0 13 11 14 10 9
-4 -4 -9 -3 -16 2 -15 21 4 28 -2 14 -12 -12 -8 -10 -9 8 -4 13 4 22 2 22 -4
0 -6 3 -10 8 -10 18 3 33 -2 28 -9 -7 -11 25 -29 47 -26 9 1 17 -2 17 -7 0 -6
6 -7 13 -3 8 5 7 2 -2 -9 -12 -15 -12 -17 3 -11 9 3 16 2 16 -4 0 -5 7 -13 16
-16 15 -6 15 -4 3 11 -13 15 -12 15 12 0 14 -10 29 -14 34 -10 4 5 5 3 1 -4
-3 -6 -2 -14 4 -18 5 -3 10 -1 10 5 0 6 5 8 10 5 6 -3 10 -1 10 6 0 8 4 8 16
-1 8 -8 14 -9 13 -4 -4 23 3 34 21 34 11 0 23 7 26 15 5 12 9 13 20 4 12 -10
13 -9 8 4 -4 12 -1 15 15 12 12 -2 19 -1 17 4 -3 4 -1 13 5 21 6 10 9 11 9 3
0 -8 8 -5 21 8 11 11 27 18 35 15 8 -3 14 -1 14 4 0 6 5 9 12 8 6 -2 17 8 25
22 7 14 13 19 13 10 0 -13 1 -13 10 0 5 8 10 11 10 6 0 -4 9 2 21 15 11 13 18
18 14 12 -8 -17 2 -17 20 0 38 33 44 37 66 37 5 0 7 4 4 10 -3 5 -1 10 6 10 7
0 21 8 31 17 18 16 19 16 12 -3 -7 -19 -6 -19 8 0 8 10 20 16 26 12 8 -4 10
-2 6 7 -3 8 0 18 7 23 7 4 10 3 6 -3 -3 -5 0 -10 7 -10 8 0 12 7 9 14 -3 8 -2
13 3 12 22 -4 35 2 28 13 -4 6 -3 8 4 4 6 -3 17 0 25 8 11 11 17 12 26 3 9 -9
11 -8 5 7 -5 13 -4 17 4 12 7 -4 12 -2 12 4 0 6 5 8 10 5 6 -3 13 1 16 9 3 9
10 13 15 10 5 -3 12 1 15 10 3 8 11 13 19 10 7 -3 15 2 19 11 4 10 12 15 22
11 8 -3 12 -2 9 4 -6 9 8 15 29 11 5 -1 6 5 3 13 -4 10 1 13 18 11 13 -1 23 3
22 9 -1 6 8 11 20 10 12 0 21 4 20 10 -1 5 4 11 11 12 6 1 15 3 20 4 4 1 11 2
15 1 5 -1 6 3 3 8 -3 5 2 15 11 22 12 10 14 10 9 2 -12 -21 5 -15 23 9 10 11
29 22 42 24 13 1 28 3 32 3 5 1 6 5 2 10 -3 5 4 12 15 16 11 4 18 10 15 14 -2
5 7 7 20 5 14 -1 23 1 20 6 -3 4 4 10 15 13 14 4 18 10 14 24 -6 17 -6 17 8
-1 14 -18 15 -18 30 2 8 12 24 23 36 25 12 2 25 7 29 12 5 4 2 5 -6 0 -9 -5
-12 -4 -7 3 4 7 16 12 27 12 11 0 22 7 25 15 5 12 9 13 20 4 12 -10 13 -8 7 6
-5 15 -3 17 11 12 11 -5 15 -3 10 5 -5 8 -2 9 9 5 9 -3 16 -3 14 1 -1 4 2 8 7
9 5 1 12 6 16 13 4 6 17 12 29 13 13 1 20 6 17 14 -3 7 0 12 7 10 7 -1 11 4 9
11 -2 10 2 10 17 3 14 -8 20 -7 25 4 3 8 12 15 21 15 8 0 15 5 15 10 0 6 5 10
11 10 5 0 7 -5 3 -12 -4 -7 -3 -8 5 -4 6 4 9 12 6 17 -4 5 -1 9 5 9 6 0 8 5 4
13 -5 8 -2 8 9 -2 13 -10 17 -10 17 -1 0 7 7 10 16 6 8 -3 12 -2 9 4 -3 6 -1
10 5 10 6 0 8 5 4 13 -5 7 -2 7 10 -2 15 -12 17 -12 14 0 -2 8 3 13 10 11 7
-1 15 5 18 13 5 13 9 13 22 3 11 -9 14 -9 9 -1 -4 7 0 17 10 23 16 11 16 11
-2 6 -19 -6 -19 -5 -2 8 17 13 25 32 9 22 -5 -3 -9 1 -9 9 0 8 3 13 6 12 3 -1
6 3 6 8 0 6 -4 9 -8 7 -4 -1 0 9 9 23 15 24 15 25 -2 25 -11 0 -15 4 -9 8 15
11 17 32 3 32 -6 0 -3 7 8 16 10 8 14 13 8 10 -7 -3 -15 1 -18 10 -9 23 -7 31
3 16 6 -10 10 -8 14 8 4 16 2 20 -9 16 -11 -4 -11 0 2 19 10 15 12 25 5 25 -6
0 -11 -5 -11 -12 0 -6 -3 -9 -6 -5 -3 3 -2 12 2 19 13 20 13 38 1 38 -6 0 -2
7 9 16 10 8 14 13 8 10 -14 -7 -27 21 -14 29 15 9 12 27 -2 20 -7 -4 -4 1 6 9
18 14 15 21 -6 17 -5 0 -8 4 -8 9 0 6 7 10 16 10 8 0 12 5 9 10 -4 6 -12 8
-18 4 -7 -3 -3 2 7 10 15 12 16 16 5 16 -12 0 -12 2 1 10 8 5 10 10 4 10 -7 0
-14 7 -17 14 -4 10 -1 13 7 10 8 -3 17 0 21 6 3 6 1 9 -5 8 -7 -2 -14 4 -15
12 -2 8 -5 22 -7 30 -3 8 -3 12 -1 8 10 -17 23 -7 15 10 -5 9 -7 23 -4 31 3 9
0 11 -9 7 -8 -4 -5 0 5 8 18 14 15 21 -6 17 -5 0 -8 4 -8 9 0 6 6 10 13 10 8
0 13 12 12 30 0 17 -3 30 -7 30 -5 0 -8 -5 -8 -12 0 -6 -3 -8 -7 -5 -3 4 2 17
13 29 10 12 13 18 7 14 -9 -5 -11 -2 -7 9 4 8 15 20 26 26 15 8 19 8 14 0 -4
-6 -2 -11 3 -11 6 0 11 4 11 9 0 5 9 7 20 4 12 -3 20 0 20 6 0 7 -6 9 -12 5
-7 -4 -10 -4 -6 1 4 4 60 7 125 6 65 -1 126 -2 136 -2 9 0 15 -5 11 -11 -4 -6
3 -5 16 2 18 10 21 9 15 -1 -6 -9 -2 -11 13 -7 12 4 25 2 28 -3 3 -5 9 -7 14
-4 4 3 11 -2 14 -11 10 -25 7 -27 -11 -13 -16 12 -17 12 -6 -2 7 -9 9 -20 5
-24 -4 -5 0 -6 8 -3 10 4 16 0 16 -12 0 -12 -5 -16 -16 -12 -13 5 -13 3 -1
-11 11 -14 11 -17 0 -17 -11 0 -11 -2 1 -10 12 -8 13 -11 1 -19 -11 -7 -11
-10 0 -15 11 -5 12 -7 1 -12 -10 -5 -9 -9 4 -18 13 -10 14 -15 4 -21 -9 -6
-11 -4 -5 5 5 8 4 11 -3 7 -11 -7 -11 -32 1 -43 12 -12 8 -26 -5 -18 -10 6
-10 5 -1 -7 9 -11 9 -19 2 -26 -8 -8 -8 -13 0 -17 6 -4 11 -12 11 -17 0 -6 -4
-8 -9 -5 -11 7 -8 -21 4 -31 4 -4 5 -2 0 6 -6 10 -4 12 5 6 11 -7 10 -10 -1
-19 -15 -12 -22 -49 -8 -40 6 3 7 -8 4 -26 -3 -17 -2 -29 3 -26 4 2 8 -4 8
-14 0 -12 -4 -16 -11 -10 -7 6 -11 2 -11 -10 0 -10 4 -16 9 -13 5 3 6 -4 2
-17 -4 -13 -3 -20 2 -17 5 3 9 -3 9 -13 0 -12 -4 -16 -11 -10 -7 6 -11 1 -10
-16 0 -14 7 -29 15 -34 13 -8 12 -10 -3 -10 -10 0 -15 -5 -12 -10 4 -6 12 -8
18 -4 7 3 3 -2 -7 -10 -13 -10 -15 -16 -7 -16 11 0 11 -3 0 -17 -10 -11 -10
-14 -1 -9 6 4 12 3 12 -3 0 -5 -6 -12 -12 -14 -10 -4 -10 -6 0 -6 6 -1 12 -6
12 -12 0 -5 -4 -8 -9 -5 -5 4 -7 -3 -4 -15 4 -16 8 -17 14 -7 6 9 9 9 9 1 0
-6 -4 -15 -10 -18 -5 -3 -10 -11 -10 -16 0 -6 5 -7 12 -3 8 5 9 2 5 -9 -4 -11
-1 -17 8 -18 29 -3 33 -4 42 -13 5 -5 2 -6 -6 -1 -9 5 -12 4 -7 -3 4 -7 16
-12 27 -12 11 0 17 -4 14 -10 -5 -9 24 -15 49 -11 5 1 6 -5 2 -14 -5 -13 -1
-15 15 -10 15 5 19 4 15 -4 -4 -6 -2 -11 4 -11 6 0 8 -5 4 -13 -6 -9 -3 -8 9
1 13 12 18 11 28 -6 7 -11 19 -18 26 -15 9 4 11 0 6 -13 -6 -16 -5 -17 9 -6
10 8 19 9 22 3 3 -5 0 -12 -6 -15 -7 -3 -4 -4 7 -1 14 3 26 -3 38 -19 13 -17
26 -23 43 -20 13 2 24 1 23 -3 -3 -18 2 -36 8 -30 3 4 13 1 21 -6 13 -10 15
-9 8 3 -4 8 0 6 8 -4 9 -11 16 -16 16 -11 0 5 9 -1 20 -13 12 -12 28 -22 36
-22 9 0 12 -5 8 -12 -6 -10 -4 -10 8 0 13 10 18 10 24 1 5 -8 3 -9 -6 -4 -9 5
-11 4 -6 -3 4 -7 14 -12 22 -12 10 0 12 -5 8 -12 -5 -9 -2 -9 9 1 12 9 17 10
17 2 0 -7 5 -9 10 -6 6 3 10 -1 10 -9 0 -9 8 -16 18 -16 10 0 24 -9 32 -20 8
-11 25 -20 38 -20 16 0 21 -4 16 -12 -5 -8 0 -7 11 2 11 9 16 10 11 3 -4 -8
-2 -13 4 -13 6 0 8 -6 4 -12 -4 -7 -4 -10 1 -6 4 4 15 2 23 -5 13 -10 15 -9 8
3 -4 8 -1 7 7 -3 8 -10 24 -19 35 -20 12 0 18 -6 15 -14 -4 -9 0 -11 13 -6 11
4 15 3 11 -4 -4 -6 0 -14 9 -17 10 -4 13 -2 8 7 -9 13 26 -12 38 -28 5 -6 8
-6 8 0 0 5 7 0 15 -11 8 -12 28 -24 45 -28 17 -3 29 -10 25 -15 -3 -6 4 -8 15
-6 12 2 23 -2 27 -11 3 -8 12 -13 20 -10 8 3 11 1 8 -4 -3 -6 -1 -10 5 -10 6
0 8 -5 4 -12 -5 -8 0 -7 11 2 11 9 16 10 11 3 -4 -8 -2 -13 4 -13 6 0 8 -5 4
-12 -6 -10 -4 -10 8 0 13 10 18 10 24 1 5 -8 3 -9 -6 -4 -9 5 -11 4 -6 -4 6
-9 11 -9 24 1 13 11 14 11 7 -1 -6 -11 -4 -13 8 -8 11 4 17 1 17 -9 0 -8 -4
-12 -10 -9 -5 3 -10 2 -10 -3 0 -5 12 -9 27 -9 15 0 29 -6 31 -12 2 -6 9 -8
14 -5 6 4 17 -1 24 -11 7 -10 20 -15 28 -12 9 4 15 3 15 -1 -3 -19 2 -33 10
-28 5 4 12 0 14 -6 4 -10 6 -10 6 0 1 10 5 10 17 -2 8 -9 21 -13 27 -9 7 4 7
0 -1 -10 -12 -14 -11 -15 13 -11 15 3 24 1 21 -4 -2 -4 4 -14 16 -21 16 -10
19 -10 12 0 -4 7 6 3 23 -9 17 -12 33 -18 37 -14 4 4 6 1 4 -7 -2 -8 6 -17 17
-19 11 -2 23 -9 28 -16 5 -8 10 -7 17 4 9 12 10 12 8 -4 -2 -13 4 -22 18 -25
29 -8 74 -43 68 -53 -3 -4 7 -3 21 2 15 6 24 6 20 1 -3 -5 5 -17 17 -25 17
-12 24 -13 30 -3 4 6 8 8 8 3 0 -6 7 -1 15 10 15 19 15 19 9 -1 -7 -19 -6 -19
15 2 13 14 28 20 39 17 13 -5 14 -4 3 4 -9 7 -10 12 -2 16 6 4 11 4 11 0 0 -4
7 1 16 12 8 10 13 14 10 8 -3 -6 1 -11 9 -11 8 0 12 4 9 9 -10 16 7 30 22 17
11 -9 14 -7 15 12 0 13 3 18 6 11 4 -10 8 -10 19 -1 8 6 11 16 7 23 -4 6 1 5
10 -3 13 -10 17 -10 17 -1 0 7 7 10 16 6 9 -3 12 -2 9 5 -4 6 2 13 14 16 12 3
21 10 21 15 0 6 6 8 13 5 15 -5 39 18 29 29 -4 4 -1 4 7 -1 8 -4 17 -2 22 6 7
12 9 11 9 -1 0 -13 1 -13 10 0 6 9 5 17 -3 22 -7 5 -1 7 15 4 17 -3 28 1 32
10 3 8 12 14 20 14 7 0 17 7 20 16 5 14 9 14 23 3 9 -8 14 -9 10 -3 -4 7 5 19
19 29 18 12 24 13 19 4 -3 -8 1 -5 9 5 9 11 16 16 16 11 0 -5 6 -1 13 9 7 10
25 19 39 19 14 1 24 5 21 10 -2 4 9 12 26 18 18 6 28 16 24 22 -4 6 -1 7 7 2
8 -5 18 -1 27 11 8 10 16 18 18 17 15 -9 35 -1 35 13 0 10 6 14 15 10 8 -3 15
-1 15 5 0 6 5 7 10 4 6 -3 13 1 16 9 3 9 10 13 15 11 4 -3 14 3 21 15 7 11 16
20 21 20 4 0 5 -5 1 -12 -4 -7 -3 -8 4 -4 7 4 12 15 12 24 0 15 2 15 10 2 9
-14 15 -7 11 14 -1 5 5 6 14 2 10 -3 25 3 38 18 27 28 92 60 106 52 6 -4 8 3
6 15 -3 17 -2 20 7 11 8 -8 15 -7 25 4 17 17 37 19 27 2 -4 -7 -3 -8 5 -4 9 6
9 11 -1 24 -7 9 -8 13 -2 9 6 -3 22 0 37 8 14 7 28 10 32 7 3 -4 3 1 0 9 -5
12 0 16 17 15 13 -1 32 8 46 23 12 13 25 21 29 18 3 -4 15 5 26 20 18 28 18
28 12 3 l-7 -25 19 22 c11 13 23 20 27 18 3 -3 4 -2 1 2 -3 3 0 12 6 19 8 10
16 11 30 4 14 -8 17 -7 13 4 -3 8 0 17 7 22 7 4 10 3 6 -2 -3 -6 4 -10 16 -11
12 0 16 1 10 4 -7 3 -13 9 -13 14 0 6 5 7 10 4 6 -3 10 2 10 11 0 16 1 16 15
-2 8 -10 15 -14 14 -9 -3 22 1 36 10 31 5 -3 12 1 15 10 5 14 9 14 23 3 12
-10 14 -10 9 -1 -4 7 -1 12 9 12 9 0 13 5 10 10 -6 9 16 15 39 11 5 -1 6 5 3
13 -4 9 0 13 11 12 9 -2 23 4 30 13 11 13 12 13 7 1 -4 -8 1 -6 9 4 9 11 16
16 16 12 0 -4 7 -1 15 8 13 13 15 140 15 1027 0 557 -3 1009 -6 1006 -4 -4
-15 3 -25 14 -9 11 -20 20 -23 20 -20 -3 -26 0 -21 9 4 7 -3 9 -20 6 -23 -4
-25 -3 -14 10 7 8 8 14 3 13 -23 -4 -35 2 -28 14 5 8 2 8 -9 -2 -12 -9 -17
-10 -17 -2 0 7 -4 9 -10 6 -5 -3 -10 0 -10 8 0 7 -11 19 -25 25 -33 15 -38 15
-29 0 5 -9 2 -9 -9 1 -18 15 -23 26 -7 16 6 -3 10 -4 10 0 0 3 -12 10 -26 15
-14 6 -22 15 -18 21 5 8 1 8 -14 0 -16 -9 -21 -7 -25 9 -3 13 -10 18 -21 14
-9 -3 -16 -1 -16 5 0 6 -7 11 -16 11 -9 0 -12 5 -8 13 5 8 2 7 -9 -2 -15 -12
-17 -12 -11 3 5 12 2 15 -10 10 -10 -4 -18 0 -22 11 -4 9 -13 14 -20 11 -8 -3
-14 -1 -14 4 0 6 -8 10 -17 10 -16 0 -16 2 -3 11 12 9 11 10 -7 6 -17 -4 -23
0 -24 11 0 10 -3 12 -6 5 -3 -10 -7 -10 -18 0 -7 7 -11 15 -9 18 2 4 -4 6 -14
5 -9 0 -16 4 -15 11 2 7 -3 10 -11 7 -8 -3 -17 0 -22 7 -5 8 -3 10 6 4 9 -6
11 -4 5 4 -5 9 -10 10 -18 2 -8 -8 -15 -5 -25 11 -11 19 -12 20 -8 3 6 -19 5
-18 -13 2 -10 12 -21 19 -25 16 -3 -4 -6 -1 -6 6 0 7 -4 10 -9 6 -6 -3 -14 3
-20 12 -8 14 -10 15 -11 3 0 -13 -2 -13 -9 0 -6 8 -7 19 -3 25 3 5 -3 3 -13
-5 -11 -9 -16 -10 -11 -2 7 11 -6 16 -42 15 -7 -1 -11 5 -8 13 3 8 -1 14 -9
14 -8 0 -19 8 -25 18 -10 15 -11 15 -6 0 3 -12 1 -15 -9 -11 -8 3 -12 9 -9 14
3 5 -2 9 -11 9 -9 0 -14 4 -11 9 3 5 -1 12 -10 15 -8 3 -12 2 -9 -4 3 -6 -1
-7 -9 -4 -9 3 -14 10 -11 14 3 5 -5 12 -17 15 -13 4 -31 14 -40 23 -12 10 -18
11 -18 3 0 -7 -4 -10 -10 -6 -5 3 -6 13 -3 22 4 11 2 14 -5 9 -14 -8 -75 21
-68 33 3 5 -6 9 -19 9 -14 0 -33 8 -43 18 -9 11 -23 20 -31 22 -7 2 -21 11
-30 20 -9 10 -12 12 -7 5 6 -10 4 -12 -8 -7 -9 3 -16 10 -16 15 0 5 -8 9 -19
9 -10 0 -21 9 -24 19 -3 15 -11 18 -26 14 -17 -4 -24 0 -28 17 -4 16 -8 18
-14 8 -7 -11 -9 -11 -9 1 0 8 -6 11 -16 7 -8 -3 -12 -2 -9 4 3 6 1 11 -4 11
-6 1 -16 2 -22 3 -5 0 -19 12 -30 26 -12 14 -17 18 -13 10 6 -12 5 -13 -8 -3
-8 7 -19 9 -23 5 -5 -4 -5 -1 -1 6 5 8 0 12 -14 12 -12 0 -18 4 -15 10 3 5 -3
10 -15 10 -11 0 -23 7 -26 15 -4 8 -10 12 -15 9 -5 -3 -9 0 -9 6 0 6 -4 8 -10
5 -5 -3 -10 2 -10 12 0 15 -2 16 -10 3 -7 -11 -10 -11 -10 -2 0 7 -4 10 -10 7
-5 -3 -10 0 -10 8 0 10 -9 13 -27 10 -21 -2 -23 -1 -10 5 17 7 16 9 -8 20 -14
7 -24 9 -21 4 2 -4 -6 -8 -19 -8 -14 0 -21 4 -18 11 4 5 -2 3 -13 -6 -10 -9
-29 -20 -42 -24 -12 -3 -20 -10 -17 -15 3 -5 -6 -12 -20 -16 -13 -3 -23 -9
-21 -13 3 -4 -3 -7 -13 -8 -18 -2 -91 -41 -91 -50 0 -2 5 -1 12 3 7 4 8 3 4
-5 -6 -9 -11 -9 -22 0 -11 9 -14 8 -14 -3 0 -9 -8 -15 -20 -14 -11 0 -20 -3
-21 -9 -2 -15 -38 -37 -48 -31 -5 3 -12 -1 -15 -9 -3 -8 -10 -14 -15 -13 -5 2
-17 -6 -26 -17 -9 -11 -14 -15 -11 -8 4 7 -1 9 -14 6 -11 -3 -20 -11 -20 -17
0 -16 -45 -40 -59 -32 -6 4 -16 -2 -23 -14 -7 -11 -19 -20 -26 -20 -8 0 -10
-5 -6 -12 6 -10 4 -10 -8 0 -14 11 -19 9 -37 -14 -12 -15 -21 -22 -21 -15 0 6
-10 1 -21 -10 -16 -16 -23 -18 -29 -9 -6 9 -9 9 -13 -1 -5 -12 -6 -12 -6 0 -1
17 -48 61 -56 53 -3 -4 -3 0 0 9 6 16 -28 63 -38 53 -3 -3 -8 4 -12 15 -3 12
-13 28 -21 36 -11 11 -12 15 -3 15 7 0 5 7 -7 16 -10 8 -13 13 -7 9 9 -4 11
-1 7 9 -3 9 -11 13 -17 9 -6 -4 -8 0 -4 10 3 10 2 17 -4 17 -6 0 -7 5 -4 10 3
5 2 10 -4 10 -5 0 -12 18 -16 40 -4 26 -11 38 -18 34 -8 -5 -7 -2 1 7 6 7 12
17 12 22 0 4 -6 5 -12 1 -10 -6 -10 -4 0 8 7 9 22 15 32 13 12 -2 17 1 14 9
-3 7 5 12 17 13 12 1 27 7 33 14 8 9 7 10 -4 4 -8 -5 -11 -4 -7 0 7 9 13 11
51 18 11 2 22 10 24 18 3 11 1 11 -8 -1 -10 -13 -11 -13 -7 0 2 8 12 14 21 12
9 -2 26 7 37 20 11 13 18 18 15 12 -3 -7 0 -14 8 -17 10 -4 12 0 9 14 -4 15
-2 18 12 12 13 -4 16 -3 11 5 -4 8 0 12 11 12 22 1 55 24 46 33 -3 4 4 4 17 2
16 -3 20 0 16 10 -3 8 0 17 6 21 6 4 8 3 4 -4 -4 -6 1 -10 13 -9 11 1 18 3 16
5 -2 3 6 13 18 22 17 14 25 16 36 7 10 -8 13 -8 8 -1 -3 6 0 20 8 30 15 18 15
18 9 -1 -6 -20 -5 -20 10 -1 9 11 16 16 16 11 0 -5 7 0 16 11 8 10 13 12 9 4
-4 -8 2 -5 13 8 14 15 22 18 25 10 4 -9 6 -8 6 2 1 9 11 16 22 17 12 1 27 7
33 14 8 9 7 10 -3 4 -10 -6 -12 -4 -7 4 5 7 14 10 22 7 8 -3 14 1 14 9 0 7 5
17 12 21 6 4 8 3 4 -4 -3 -6 -2 -14 4 -17 6 -4 10 -3 9 2 -1 4 0 10 1 13 7 12
6 89 0 85 -9 -6 -7 36 3 52 4 6 3 15 -3 18 -8 5 -8 11 0 20 8 10 7 14 -2 18
-10 4 -10 6 0 6 6 1 12 6 12 12 0 5 -6 7 -12 3 -9 -5 -9 -2 1 9 11 14 11 17 0
17 -11 0 -11 2 1 10 13 9 13 10 0 10 -9 0 -11 3 -5 8 13 9 17 65 5 57 -6 -4
-10 -1 -10 4 0 6 5 11 11 11 8 0 8 4 0 14 -9 11 -9 15 1 18 11 4 11 8 0 20 -9
11 -10 18 -2 23 5 3 10 11 10 16 0 6 -4 8 -9 5 -10 -7 -9 20 2 30 11 11 8 26
-3 19 -5 -3 -10 -1 -10 4 0 6 5 11 11 11 8 0 8 4 0 14 -9 11 -9 15 1 18 11 4
11 8 0 20 -9 11 -10 18 -2 23 5 3 10 11 10 16 0 6 -4 8 -9 5 -11 -7 -9 13 2
32 5 7 3 12 -5 12 -9 0 -9 3 2 10 13 9 13 10 0 10 -9 0 -11 3 -5 8 12 8 18 65
6 58 -10 -6 -8 34 2 51 4 6 3 15 -3 18 -8 5 -8 11 0 20 8 10 7 14 -2 18 -10 4
-10 6 0 6 6 1 12 6 12 12 0 5 -6 7 -12 3 -9 -5 -9 -2 1 9 11 14 11 17 0 17
-11 0 -11 2 1 10 13 9 13 10 0 10 -9 0 -11 3 -5 8 13 9 17 65 5 57 -6 -4 -10
-1 -10 4 0 6 5 11 11 11 8 0 8 4 0 14 -9 11 -9 15 1 18 11 4 11 8 0 20 -9 11
-10 18 -2 23 5 3 10 11 10 16 0 6 -4 8 -9 5 -10 -7 -9 20 2 30 11 11 8 26 -3
19 -5 -3 -10 -1 -10 4 0 6 5 11 11 11 8 0 8 4 0 14 -9 11 -9 15 1 18 11 4 11
8 0 20 -9 11 -10 18 -2 23 5 3 10 11 10 16 0 6 -4 8 -9 5 -11 -7 -9 13 2 32 5
7 3 12 -5 12 -9 0 -9 3 2 10 13 9 13 10 0 10 -9 0 -11 3 -5 8 12 8 18 65 6 58
-10 -6 -8 34 2 51 4 6 3 15 -3 18 -8 5 -8 11 0 20 8 10 7 14 -2 18 -10 4 -10
6 0 6 6 1 12 6 12 12 0 5 -6 7 -12 3 -9 -5 -9 -2 1 9 11 14 11 17 0 17 -11 0
-11 2 1 10 13 9 13 10 0 10 -9 0 -11 3 -5 8 13 9 17 65 5 57 -6 -4 -10 -1 -10
4 0 6 5 11 11 11 8 0 8 4 0 14 -9 11 -9 15 1 18 11 4 11 8 0 20 -9 11 -10 18
-2 23 5 3 10 11 10 16 0 6 -4 8 -9 5 -10 -7 -9 20 2 30 11 11 8 26 -3 19 -5
-3 -10 -1 -10 4 0 6 5 11 11 11 8 0 8 4 0 14 -9 11 -9 15 1 18 11 4 11 8 0 20
-9 11 -10 18 -2 23 5 3 10 11 10 16 0 6 -4 8 -9 5 -11 -7 -9 13 2 32 5 7 3 12
-5 12 -9 0 -9 3 2 10 13 9 13 10 0 10 -9 0 -11 3 -5 8 16 11 16 74 0 68 -9 -3
-12 0 -8 10 3 9 -2 14 -16 14 -12 0 -21 3 -21 8 0 4 -9 13 -21 20 -17 11 -20
11 -13 0 4 -7 -7 1 -24 17 -16 17 -36 30 -44 30 -7 1 -12 7 -10 15 3 11 0 11
-12 0 -11 -8 -16 -9 -16 -1 0 6 -9 11 -20 11 -11 0 -20 7 -20 15 0 8 -9 15
-20 15 -11 0 -23 7 -27 16 -3 8 -12 13 -19 10 -9 -3 -14 1 -14 12 0 15 -2 15
-10 2 -6 -10 -10 -11 -10 -2 0 6 -6 12 -14 12 -8 0 -18 5 -22 12 -5 7 -3 8 6
3 8 -5 11 -4 6 3 -3 6 -19 8 -33 6 -15 -3 -24 -2 -21 2 9 8 -16 34 -33 34 -6
0 -18 8 -26 18 -9 10 -12 11 -7 2 4 -8 -5 -4 -21 10 -16 14 -25 18 -20 10 4
-8 -1 -6 -12 5 -11 11 -18 24 -16 28 3 5 -5 4 -17 -3 -13 -7 -20 -8 -16 -2 3
6 -3 13 -14 17 -12 4 -17 11 -13 18 4 7 -1 6 -10 -2 -15 -12 -17 -11 -17 2 0
9 -5 19 -12 23 -7 4 -8 3 -4 -4 5 -8 2 -10 -8 -6 -9 3 -13 10 -10 15 3 5 -4 9
-16 9 -14 0 -19 4 -14 13 5 7 2 7 -10 -2 -15 -12 -17 -12 -14 0 2 8 -3 13 -9
12 -7 -2 -13 2 -13 8 0 6 -7 9 -15 5 -9 -3 -15 0 -15 10 0 8 -4 13 -9 10 -5
-3 -12 1 -15 10 -4 9 -13 14 -21 10 -8 -3 -15 -1 -15 5 0 6 -4 7 -10 4 -5 -3
-10 1 -10 11 0 13 -3 14 -15 4 -12 -10 -14 -8 -10 9 5 25 1 26 -20 5 -13 -13
-16 -14 -15 -3 4 26 0 37 -16 43 -14 5 -15 4 -4 -9 19 -23 3 -18 -21 8 -12 12
-18 16 -14 8 6 -10 4 -12 -4 -7 -7 5 -10 14 -7 21 3 9 -4 12 -24 11 -16 -1
-28 3 -27 8 1 6 -4 10 -10 8 -7 -1 -13 2 -13 8 0 6 -7 10 -15 10 -16 0 -56 35
-49 42 2 3 -3 5 -11 5 -8 0 -12 -3 -10 -7 2 -4 -2 -7 -9 -7 -8 0 -12 6 -9 14
3 7 -1 13 -10 13 -8 0 -17 6 -20 14 -3 8 -16 13 -31 12 -14 -2 -23 1 -20 5 3
5 1 9 -4 9 -5 0 -19 9 -32 20 -13 11 -31 20 -41 20 -10 0 -21 5 -25 12 -5 7
-3 8 6 3 9 -5 11 -4 6 4 -5 7 -16 9 -28 5 -16 -5 -20 -3 -15 9 4 11 2 14 -9
10 -7 -3 -14 0 -14 7 0 6 -4 8 -10 5 -5 -3 -10 1 -10 9 0 9 -5 16 -11 16 -5 0
-7 -4 -4 -10 3 -6 -1 -7 -9 -4 -9 3 -16 14 -17 23 0 9 -3 11 -6 4 -3 -10 -7
-10 -18 0 -7 7 -11 15 -8 19 2 4 -3 5 -11 2 -9 -4 -16 -1 -16 6 0 10 -3 10
-15 0 -12 -10 -14 -8 -10 8 2 15 -1 19 -14 15 -9 -2 -29 7 -43 20 -15 14 -29
22 -32 19 -3 -3 -6 0 -6 6 0 7 -9 12 -19 12 -11 0 -23 5 -27 12 -5 7 -3 8 6 3
8 -5 11 -4 7 3 -4 5 -16 8 -27 5 -13 -4 -20 0 -20 9 0 9 -11 14 -30 14 -16 0
-30 -3 -30 -7z m45 -349 c-5 -9 1 -12 21 -9 3 0 12 -8 21 -18 9 -11 12 -12 8
-3 -4 10 -2 9 8 -2 16 -20 32 -25 21 -6 -4 7 -3 8 4 4 7 -4 12 -13 12 -21 0
-7 7 -16 16 -19 10 -4 13 -2 9 7 -4 6 1 3 9 -7 9 -11 16 -16 16 -11 0 5 7 0
16 -11 8 -10 13 -13 9 -6 -5 10 -1 10 19 1 14 -7 23 -16 20 -20 -3 -5 2 -9 10
-9 9 0 25 -9 36 -20 12 -12 20 -15 20 -7 0 8 3 7 9 -3 6 -8 8 -17 5 -21 -2 -4
2 -7 9 -6 39 1 57 -5 57 -19 0 -8 5 -12 10 -9 6 3 10 1 10 -5 0 -6 5 -8 10 -5
6 3 13 -1 16 -9 3 -9 17 -16 30 -16 14 0 24 -6 24 -14 0 -8 8 -13 18 -12 9 0
16 -4 15 -11 -2 -7 4 -10 12 -7 8 4 15 1 15 -6 0 -6 4 -9 9 -6 5 3 12 -2 15
-11 6 -15 8 -15 16 -3 7 11 10 11 10 2 0 -7 16 -20 35 -28 19 -8 35 -20 35
-27 0 -8 4 -7 10 3 9 13 10 13 11 0 1 -8 1 -18 0 -22 0 -3 11 -5 24 -4 13 2
23 -2 22 -8 -1 -6 4 -10 11 -8 8 1 16 -7 19 -19 5 -16 8 -18 15 -7 7 10 11 10
15 1 2 -7 11 -13 19 -13 8 0 14 -5 14 -11 0 -5 5 -7 10 -4 6 3 10 -2 10 -12 0
-15 2 -16 10 -3 5 8 10 10 10 4 0 -11 35 -28 52 -25 5 1 7 -2 7 -7 -1 -4 -1
-14 0 -22 1 -13 2 -13 11 0 8 12 10 12 10 1 0 -8 3 -12 6 -8 4 3 14 -2 23 -11
9 -10 12 -12 7 -5 -12 18 -1 16 18 -3 9 -9 24 -17 34 -18 9 -2 23 -15 31 -30
9 -20 16 -25 24 -17 7 7 14 5 24 -7 8 -9 11 -11 7 -3 -5 10 -3 12 5 7 7 -5 10
-14 7 -22 -5 -12 -2 -12 15 -3 17 9 20 8 14 -2 -6 -9 -3 -11 8 -6 10 4 16 2
14 -6 -1 -7 4 -11 11 -10 6 2 12 -2 12 -8 0 -5 5 -7 10 -4 6 3 10 -2 11 -12 0
-10 3 -13 5 -6 4 8 11 7 23 -5 10 -9 16 -20 15 -23 -2 -3 3 -6 11 -6 8 0 12 3
10 7 -2 4 2 7 9 7 8 0 12 -6 9 -14 -3 -7 2 -13 11 -13 9 0 16 -4 16 -10 0 -5
7 -10 15 -10 8 0 15 -6 16 -12 0 -10 2 -10 6 -1 3 10 8 9 20 -2 8 -8 20 -12
26 -8 6 4 8 0 4 -10 -3 -9 -1 -19 5 -23 7 -4 8 -3 4 4 -4 7 -2 12 3 12 6 0 11
-7 11 -16 0 -9 5 -12 12 -8 7 5 8 3 3 -7 -5 -7 -8 -28 -7 -47 2 -21 -1 -31 -8
-27 -5 3 -10 1 -10 -4 0 -6 8 -11 18 -11 14 0 15 -2 2 -10 -13 -9 -13 -10 0
-10 13 0 13 -1 0 -10 -13 -8 -13 -10 0 -10 9 0 11 -3 4 -10 -6 -6 -9 -31 -7
-56 3 -31 1 -44 -6 -39 -6 3 -11 1 -11 -4 0 -6 8 -11 18 -11 14 0 15 -2 2 -10
-13 -9 -13 -10 0 -10 13 0 13 -1 0 -10 -13 -8 -13 -10 0 -10 9 0 11 -3 4 -10
-6 -6 -9 -31 -7 -56 3 -31 1 -44 -6 -39 -6 3 -11 1 -11 -4 0 -6 8 -11 18 -11
14 0 15 -2 2 -10 -13 -9 -13 -10 0 -10 13 0 13 -1 0 -10 -13 -8 -13 -10 0 -10
9 0 11 -3 4 -10 -6 -6 -9 -31 -7 -56 3 -31 1 -44 -6 -39 -6 3 -11 1 -11 -4 0
-6 8 -11 18 -11 14 0 15 -2 2 -10 -13 -9 -13 -10 0 -10 13 0 13 -1 0 -10 -13
-8 -13 -10 0 -10 9 0 11 -3 4 -10 -6 -6 -9 -31 -7 -56 3 -31 1 -44 -6 -39 -6
3 -11 1 -11 -4 0 -6 8 -11 18 -11 14 0 15 -2 2 -10 -13 -9 -13 -10 0 -10 13 0
13 -1 0 -10 -12 -8 -12 -10 -1 -10 9 0 10 -4 4 -12 -5 -7 -8 -22 -7 -33 8 -92
7 -120 -7 -117 -11 2 -11 0 1 -10 8 -7 16 -19 18 -26 2 -10 -2 -10 -20 -1 -20
10 -21 10 -12 -2 9 -11 9 -17 -2 -27 -8 -7 -14 -8 -14 -2 0 5 -5 10 -11 10 -5
0 -7 -5 -3 -12 5 -8 2 -9 -10 -5 -10 4 -15 3 -11 -3 3 -6 -1 -10 -10 -10 -10
0 -13 -5 -9 -12 6 -10 4 -10 -8 0 -14 11 -19 9 -37 -14 -12 -15 -21 -23 -21
-19 0 4 -7 2 -15 -5 -8 -7 -15 -9 -15 -5 0 4 -6 2 -13 -4 -8 -6 -17 -8 -21 -4
-4 4 -4 -1 0 -11 5 -14 4 -17 -4 -12 -8 4 -12 0 -12 -11 0 -15 -2 -16 -10 -3
-7 11 -10 11 -10 2 0 -7 -4 -10 -10 -7 -5 3 -7 0 -4 -8 3 -8 -2 -17 -11 -21
-9 -3 -13 -2 -10 4 3 6 4 10 0 10 -3 0 -10 -12 -15 -26 -6 -14 -14 -23 -20
-19 -5 3 -15 -3 -22 -15 -7 -11 -20 -20 -28 -20 -13 0 -13 -1 0 -10 10 -7 11
-10 3 -11 -7 -1 -17 -2 -23 -3 -5 0 -11 -5 -11 -11 -1 -5 -10 -16 -20 -23 -11
-7 -19 -19 -19 -27 0 -7 -5 -15 -11 -17 -5 -2 -11 -11 -13 -20 -1 -10 -6 -21
-11 -25 -4 -4 -5 -2 0 6 5 9 4 12 -3 7 -7 -4 -12 -14 -12 -22 0 -8 -8 -14 -17
-15 -13 0 -14 -2 -4 -6 10 -4 8 -9 -10 -19 -13 -7 -18 -13 -11 -14 7 0 10 -5
7 -10 -4 -6 -11 -8 -16 -5 -5 3 -6 -2 -2 -11 4 -12 3 -15 -5 -10 -8 5 -10 1
-5 -10 5 -13 3 -15 -7 -9 -9 6 -11 4 -5 -4 4 -8 -1 -18 -13 -27 -13 -9 -19
-23 -17 -39 1 -17 -3 -25 -14 -26 -10 0 -12 -2 -3 -6 6 -2 12 -9 12 -14 0 -6
-4 -7 -10 -4 -6 4 -10 -5 -10 -19 0 -14 -5 -26 -11 -26 -5 0 -7 -4 -4 -10 3
-5 2 -10 -4 -10 -6 0 -8 -7 -5 -15 4 -9 0 -15 -7 -15 -11 0 -11 -3 1 -10 11
-7 12 -10 2 -10 -8 0 -12 -8 -10 -17 2 -10 -3 -24 -12 -31 -8 -8 -10 -11 -3
-8 12 7 12 -38 0 -51 -4 -3 -7 -19 -7 -35 0 -21 -4 -27 -12 -22 -9 5 -9 2 1
-9 11 -14 11 -17 0 -17 -10 0 -10 -3 -1 -12 7 -7 8 -17 1 -30 -7 -13 -6 -18 3
-18 8 0 9 -3 3 -8 -14 -10 -17 -32 -4 -32 5 0 7 -5 4 -10 -4 -6 -10 -8 -14 -6
-4 3 -8 -1 -8 -9 0 -8 4 -12 9 -9 4 3 8 1 8 -4 0 -5 -11 -15 -25 -22 -13 -7
-21 -18 -18 -24 4 -6 -2 -4 -12 4 -11 9 -16 10 -11 3 4 -8 1 -13 -9 -13 -10 0
-13 -5 -9 -12 5 -8 2 -8 -10 1 -15 12 -17 12 -14 0 2 -8 -3 -13 -9 -11 -7 1
-13 -3 -13 -9 0 -5 -13 -15 -30 -20 -16 -6 -30 -15 -30 -19 0 -5 -11 -7 -25
-6 -13 2 -23 0 -20 -3 2 -4 0 -13 -6 -21 -6 -10 -9 -11 -9 -2 0 7 -8 4 -21 -9
-11 -11 -27 -18 -35 -15 -8 3 -13 2 -10 -2 2 -4 -3 -16 -11 -27 -16 -20 -16
-20 -9 0 6 19 5 18 -13 -2 -14 -17 -21 -19 -30 -10 -10 9 -12 9 -9 -2 2 -7 -3
-16 -11 -19 -9 -3 -11 0 -6 8 5 9 4 11 -4 6 -6 -4 -10 -10 -8 -14 2 -4 -4 -15
-15 -24 -12 -12 -18 -14 -18 -5 -1 7 -6 5 -14 -5 -7 -10 -18 -18 -25 -18 -6 0
-11 -4 -11 -9 0 -4 -11 -7 -24 -6 -19 2 -23 -1 -19 -13 4 -9 2 -13 -5 -8 -6 3
-13 2 -17 -4 -4 -6 -11 -7 -17 -4 -7 4 -8 2 -4 -4 4 -7 -3 -14 -19 -18 -14 -3
-25 -13 -25 -21 0 -12 -3 -13 -14 -4 -10 9 -16 8 -26 -4 -7 -8 -17 -12 -23 -8
-6 4 -7 1 -2 -7 7 -12 -10 -30 -30 -30 -5 0 -3 5 5 10 10 7 11 10 2 10 -7 0
-15 -7 -18 -15 -4 -8 -10 -12 -15 -9 -5 3 -7 10 -3 15 3 6 0 10 -7 8 -29 -3
-50 1 -44 11 3 5 -6 12 -20 16 -14 3 -25 14 -26 23 0 12 -2 12 -9 -4 -6 -14
-9 -16 -10 -5 -2 8 -2 19 -1 24 1 5 -6 3 -15 -5 -10 -8 -15 -9 -12 -4 3 6 0
16 -8 23 -11 10 -14 10 -15 0 0 -10 -2 -10 -6 0 -2 6 -11 12 -19 12 -8 0 -14
5 -14 10 0 6 -7 10 -15 10 -8 0 -15 4 -15 9 0 5 -10 11 -22 13 -13 2 -22 9
-20 17 2 8 -3 11 -13 8 -8 -4 -15 -2 -15 3 0 5 -10 10 -22 12 -13 2 -23 8 -23
15 0 6 -4 15 -9 20 -5 5 -6 2 -1 -6 5 -9 3 -12 -6 -9 -8 3 -13 10 -12 15 1 5
-5 10 -13 11 -7 1 -21 3 -29 4 -8 1 -15 7 -15 14 0 7 -5 16 -12 20 -7 4 -8 3
-4 -4 5 -8 2 -10 -8 -6 -9 3 -13 11 -9 18 4 6 -2 4 -12 -4 -11 -9 -16 -10 -11
-2 4 7 2 12 -4 12 -6 0 -8 5 -4 12 4 6 3 8 -4 4 -6 -3 -18 1 -26 10 -12 12
-16 12 -17 2 0 -10 -2 -10 -6 0 -2 6 -11 12 -19 12 -9 0 -12 5 -8 12 5 8 0 9
-15 5 -18 -4 -21 -2 -16 11 3 9 3 13 -1 9 -4 -4 -13 -2 -20 4 -8 6 -21 9 -29
5 -9 -3 -13 -2 -10 4 3 6 1 10 -5 10 -17 0 -40 26 -40 45 0 10 -5 13 -12 9
-10 -6 -10 -4 -3 7 9 13 11 32 5 52 -7 20 -5 33 4 46 9 12 8 13 -4 6 -13 -8
-13 -7 -1 8 13 16 8 22 -14 17 -5 -1 -1 9 10 21 17 19 17 21 3 16 -12 -4 -15
-2 -11 9 3 8 -1 22 -8 31 -10 12 -10 15 -1 9 7 -4 12 -1 12 8 0 9 -4 16 -9 16
-6 0 -10 15 -10 33 0 52 -4 66 -14 60 -6 -4 -8 3 -5 15 4 12 2 20 -3 16 -5 -3
-9 3 -9 13 0 10 -8 29 -17 42 -9 14 -12 22 -6 18 5 -3 10 1 10 9 0 8 -6 13
-13 10 -8 -3 -16 0 -20 6 -4 7 -3 8 4 4 7 -4 12 -2 12 3 0 6 -4 11 -9 11 -6 0
-8 9 -6 20 3 13 0 18 -7 14 -7 -5 -9 -1 -5 9 4 10 2 16 -6 14 -7 -1 -11 6 -9
17 2 11 -1 15 -7 11 -6 -3 -11 0 -11 8 0 8 -7 17 -15 20 -8 4 -12 15 -10 26 2
11 -1 24 -7 27 -7 4 -8 2 -4 -4 4 -8 2 -10 -8 -6 -8 3 -13 14 -11 25 2 11 0
17 -6 14 -5 -4 -12 2 -16 11 -4 10 -18 29 -32 42 -14 13 -19 20 -11 16 9 -4 6
2 -5 13 -11 11 -23 19 -26 17 -4 -2 -10 7 -13 21 -4 14 -10 24 -14 24 -20 -3
-31 3 -37 21 -4 11 -11 18 -16 15 -5 -4 -9 1 -9 9 0 14 -12 20 -32 17 -5 0 -8
6 -8 14 0 9 -6 12 -17 8 -10 -4 -14 -2 -9 5 3 6 -3 13 -14 17 -11 4 -32 18
-45 31 -15 14 -25 19 -25 12 0 -7 -10 1 -21 17 -13 19 -19 23 -15 10 6 -19 5
-19 -8 -1 -8 10 -19 15 -25 12 -5 -4 -14 1 -19 11 -9 14 -12 15 -26 4 -14 -12
-16 -11 -10 4 6 15 3 17 -14 13 -15 -4 -19 -2 -15 8 3 8 10 11 17 7 6 -3 7 -2
3 3 -5 5 -14 9 -20 9 -7 0 -11 14 -10 35 1 19 -3 40 -9 47 -8 11 -7 12 8 7 15
-6 17 -4 7 6 -9 10 -10 17 -2 27 7 7 8 13 3 13 -16 0 -10 120 6 130 13 8 13
10 -1 10 -12 0 -16 8 -15 24 0 13 4 22 9 19 4 -2 7 1 7 6 0 6 -5 11 -11 11 -6
0 -7 5 -2 13 10 16 10 37 1 64 -5 16 -2 25 10 32 15 9 15 10 -3 11 -12 1 -15
4 -7 7 10 4 9 9 -5 19 -17 13 -17 14 2 8 16 -6 18 -4 8 6 -9 10 -10 17 -2 27
7 7 7 13 3 13 -11 0 -10 102 1 120 5 7 4 11 -1 8 -5 -4 -9 12 -9 34 1 23 7 43
15 48 13 8 13 10 -1 10 -12 0 -16 8 -15 24 0 13 4 22 9 19 4 -2 7 1 7 6 0 6
-5 11 -11 11 -6 0 -7 5 -2 13 9 15 10 33 2 75 -7 31 4 54 14 30 4 -10 6 -10 6
0 1 7 -5 15 -13 18 -8 3 -12 12 -9 20 3 8 9 12 14 9 4 -3 13 3 19 14 7 13 16
18 27 14 11 -4 14 -3 9 5 -4 7 -2 13 3 13 6 1 16 3 21 4 6 1 15 3 21 4 5 0 7
6 4 11 -6 9 -1 11 38 14 18 1 45 29 38 41 -2 6 3 4 12 -4 15 -12 17 -12 11 3
-5 12 0 16 21 16 14 0 24 4 20 9 -3 5 -1 12 5 16 5 3 10 0 10 -7 0 -9 3 -10 8
-2 4 6 17 14 30 18 12 4 19 12 16 18 -5 7 0 9 14 6 15 -4 19 -2 15 8 -3 9 2
14 16 14 12 0 24 7 27 15 4 8 10 13 14 10 5 -3 14 1 22 8 7 8 19 12 27 9 8 -3
11 0 7 7 -6 10 12 16 36 12 4 0 12 9 18 20 7 12 18 18 26 15 7 -3 13 0 11 6
-1 6 9 12 22 13 26 2 54 32 44 48 -3 6 -1 7 6 3 6 -4 9 -13 5 -19 -3 -7 0 -5
8 4 7 9 18 17 23 18 6 2 9 6 8 10 -1 4 5 8 13 9 8 1 21 3 29 4 9 1 14 7 11 14
-3 8 0 11 10 7 7 -3 14 0 14 7 0 10 3 10 15 0 13 -11 14 -10 10 3 -4 8 -1 18
6 23 8 5 10 3 4 -7 -5 -8 3 -4 17 9 23 21 40 28 71 31 5 1 5 6 1 13 -5 8 0 9
16 5 16 -4 23 -1 27 14 3 10 9 16 14 13 5 -3 9 0 9 6 0 7 7 10 15 6 10 -3 15
1 15 11 0 9 3 13 7 10 3 -4 18 3 32 15 21 19 23 20 11 3 l-15 -20 25 20 c14
11 28 24 32 29 3 5 17 11 30 13 13 2 28 10 34 18 6 8 14 12 17 8 4 -3 7 -1 7
6 0 8 7 11 15 7 9 -3 19 3 25 15 6 11 15 17 21 14 5 -4 9 -2 9 2 0 5 9 14 21
21 12 8 18 9 15 3 -4 -5 -1 -13 5 -17 7 -4 10 -3 6 2 -3 5 1 18 9 29 8 10 14
15 14 9 0 -5 4 -3 9 4 4 7 18 14 30 15 12 1 20 6 17 14 -3 7 1 10 10 6 7 -3
14 -1 14 5 0 6 11 9 25 7 20 -2 23 1 14 11 -8 10 -4 14 18 17 15 2 29 5 31 6
2 0 0 -3 -3 -9z m-845 -474 c0 -2 -7 -7 -16 -10 -8 -3 -12 -2 -9 4 6 10 25 14
25 6z m2435 -96 c3 -5 1 -10 -4 -10 -6 0 -11 5 -11 10 0 6 2 10 4 10 3 0 8 -4
11 -10z m-592 -1565 c-3 -9 -8 -14 -10 -11 -3 3 -2 9 2 15 9 16 15 13 8 -4z
m-2404 -55 c6 0 11 -4 11 -10 0 -5 5 -10 11 -10 16 0 39 -26 31 -35 -4 -5 -1
-5 6 -1 7 4 15 1 18 -8 3 -9 10 -13 15 -10 5 3 9 0 9 -6 0 -6 7 -18 15 -26 8
-9 15 -12 15 -8 0 4 6 -1 14 -12 11 -14 11 -21 3 -27 -7 -5 -2 -6 11 -2 16 5
22 3 20 -7 -2 -7 3 -12 11 -10 12 3 12 1 0 -14 -9 -12 -9 -15 -1 -10 7 4 12 1
12 -9 0 -9 5 -13 10 -10 6 3 10 -1 10 -9 0 -9 5 -16 10 -16 5 0 9 -3 9 -7 -4
-22 2 -33 14 -27 8 6 8 3 -1 -9 -12 -14 -11 -16 5 -12 12 2 20 -2 20 -10 0 -8
-4 -12 -9 -9 -4 3 -8 1 -8 -4 0 -5 10 -14 23 -21 l22 -12 -23 5 c-12 2 -20 0
-16 -5 3 -5 12 -9 21 -9 9 0 13 -3 10 -7 -4 -3 0 -18 9 -31 15 -23 15 -25 0
-19 -13 5 -14 3 -4 -13 7 -10 15 -17 19 -14 14 8 2 -28 -12 -37 -10 -8 -7 -8
10 -4 16 5 21 4 17 -4 -4 -6 -21 -11 -38 -11 -22 0 -29 4 -25 14 4 10 1 13 -9
9 -7 -3 -14 -1 -14 5 0 6 -11 9 -25 7 -21 -2 -23 0 -13 12 6 8 7 13 2 12 -25
-4 -45 2 -38 13 5 8 0 9 -15 5 -19 -5 -22 -2 -18 14 4 17 3 18 -9 8 -11 -9
-14 -9 -14 1 0 7 -7 10 -15 7 -8 -4 -17 -2 -20 4 -4 5 -11 6 -17 3 -7 -4 -8
-2 -4 4 4 6 14 9 24 6 14 -5 14 -4 2 4 -8 6 -18 8 -22 6 -4 -3 -8 0 -8 6 0 6
-4 8 -10 5 -5 -3 -10 -1 -10 6 0 6 -8 9 -19 6 -15 -3 -18 -1 -14 11 4 10 2 13
-5 8 -7 -4 -15 -1 -18 8 -3 9 -10 13 -15 10 -5 -3 -9 0 -9 6 0 6 -4 9 -9 6 -5
-3 -8 5 -7 18 0 13 4 22 9 19 4 -2 7 1 7 6 0 6 -5 11 -11 11 -6 0 -7 5 -2 13
10 16 10 37 1 65 -6 16 -3 24 7 28 12 5 12 8 -2 22 -11 12 -12 17 -3 20 10 4
9 6 -1 12 -10 7 -10 11 0 24 10 12 10 16 2 16 -7 0 -9 5 -4 13 4 6 8 17 9 22
0 6 2 17 3 25 1 12 4 12 15 -2 7 -10 18 -18 25 -18z m2825 15 c-4 -8 -2 -15 3
-15 9 0 10 -39 2 -56 -3 -5 -5 -22 -3 -39 1 -16 3 -52 5 -79 3 -36 0 -51 -10
-54 -9 -3 -11 0 -6 8 5 9 4 11 -4 6 -14 -9 -5 -26 15 -26 9 0 12 -5 8 -11 -4
-7 -8 -21 -9 -33 -4 -36 -5 -37 -14 -32 -5 3 -12 -2 -16 -12 -7 -16 -8 -15
-15 3 -5 11 -9 14 -9 7 -1 -7 -10 -23 -22 -35 -19 -21 -20 -21 -14 -2 6 20 6
20 -9 1 -8 -10 -12 -24 -9 -30 4 -6 0 -5 -9 2 -13 10 -17 10 -22 -3 -4 -10
-14 -14 -31 -11 -15 3 -23 1 -19 -5 8 -13 -27 -40 -45 -34 -9 4 -11 0 -7 -10
3 -9 2 -14 -3 -11 -5 3 -14 0 -20 -8 -7 -8 -21 -12 -33 -8 -14 3 -19 1 -14 -6
3 -6 -1 -15 -11 -21 -13 -7 -24 -4 -41 9 -12 10 -18 20 -13 22 5 1 11 10 13
18 2 8 8 18 13 22 6 5 4 8 -5 8 -11 0 -12 2 -3 8 7 5 14 20 15 34 1 15 5 25 8
23 3 -2 12 11 19 28 8 18 22 41 31 52 10 11 17 30 15 42 -1 15 3 19 13 15 9
-3 13 -1 9 5 -4 6 0 13 8 17 8 3 15 12 15 20 0 7 7 17 16 20 9 3 14 13 11 21
-4 10 -1 12 11 8 9 -3 14 -3 10 1 -3 4 1 16 10 27 16 18 17 18 24 2 4 -13 7
-7 8 17 1 29 3 32 10 15 8 -18 9 -19 9 -1 1 12 6 16 16 12 8 -3 15 -1 15 3 0
5 -6 12 -12 14 -8 3 -6 6 5 6 9 1 17 8 17 16 0 13 4 14 20 5 16 -8 18 -8 14 4
-3 8 0 17 7 22 8 5 10 3 4 -7 -4 -8 0 -6 11 4 22 21 25 21 18 2z m-567 -201
c-3 -3 -12 -4 -19 -1 -8 3 -5 6 6 6 11 1 17 -2 13 -5z m293 -68 c0 -3 -4 -8
-10 -11 -5 -3 -10 -1 -10 4 0 6 5 11 10 11 6 0 10 -2 10 -4z m-85 -247 c11
-16 1 -19 -13 -3 -7 8 -8 14 -3 14 5 0 13 -5 16 -11z m-1829 -548 c-3 -4 4
-12 14 -19 16 -10 18 -9 14 6 -4 11 -1 10 8 -4 7 -12 19 -19 27 -16 8 3 11 0
7 -7 -7 -10 -2 -13 33 -15 8 -1 18 -10 22 -21 4 -11 8 -14 8 -7 1 10 5 10 17
-2 8 -9 22 -16 30 -16 8 0 13 -4 10 -9 -3 -5 1 -12 10 -15 10 -4 13 -2 8 6 -4
7 -3 8 4 4 7 -4 12 -15 12 -24 0 -12 3 -13 12 -4 10 10 15 7 25 -10 7 -14 12
-17 13 -8 0 9 6 7 16 -9 11 -15 23 -21 36 -18 15 4 17 3 8 -8 -8 -10 -8 -15 1
-21 8 -4 9 -3 5 4 -11 17 9 15 24 -3 7 -8 21 -15 31 -15 10 0 21 -5 24 -10 4
-6 11 -8 16 -4 5 3 8 0 7 -8 -2 -7 4 -12 14 -10 9 1 20 -3 24 -9 5 -8 2 -10
-7 -5 -8 4 -3 -2 11 -13 14 -11 29 -21 34 -21 6 0 1 7 -10 16 -18 15 -18 15 3
4 12 -5 25 -15 28 -20 4 -6 10 -8 15 -5 5 3 12 0 16 -6 4 -7 3 -9 -4 -5 -6 3
-13 2 -16 -3 -3 -5 7 -8 24 -7 17 1 32 -4 35 -11 3 -9 0 -12 -8 -7 -9 5 -9 4
0 -6 10 -11 15 -11 29 1 15 12 16 12 10 -7 -4 -14 -2 -21 8 -21 9 0 13 4 10 9
-4 5 3 4 15 -4 12 -7 19 -18 17 -24 -2 -6 8 -10 25 -9 21 1 29 -3 29 -14 0 -9
3 -12 8 -6 4 6 14 10 22 10 8 0 14 5 13 12 -2 8 4 10 14 6 10 -4 21 1 30 13 8
10 17 19 21 19 4 0 6 4 4 9 -2 5 3 4 11 -2 10 -9 17 -7 30 8 9 11 26 20 37 20
11 0 20 5 20 10 0 6 11 15 25 20 14 5 25 14 25 19 0 5 10 8 21 6 12 -3 19 -2
15 2 -9 9 32 35 44 28 6 -3 10 1 10 10 0 9 4 14 9 11 5 -3 12 1 15 10 4 9 13
14 21 10 8 -3 15 -1 15 5 0 6 7 8 16 5 8 -3 12 -2 9 4 -3 6 -1 10 5 10 6 0 8
5 4 13 -5 7 0 6 11 -3 10 -8 16 -10 13 -5 -4 6 10 21 29 34 19 12 32 17 28 9
-3 -7 0 -5 9 6 8 10 20 15 27 10 8 -5 10 -3 4 6 -6 10 -3 12 13 8 16 -4 19 -2
15 10 -4 10 -2 13 5 8 7 -4 12 -3 12 3 0 6 8 7 18 4 14 -6 15 -4 4 9 -10 13
-9 15 14 12 20 -2 24 1 20 13 -5 13 -4 14 9 3 9 -7 18 -10 22 -6 3 3 1 6 -6 6
-7 0 -9 5 -6 10 4 6 11 8 16 5 5 -4 9 -2 9 4 0 5 9 8 19 6 15 -3 18 1 14 12
-4 10 -2 14 4 10 6 -4 16 0 23 8 14 17 30 20 30 4 0 -5 -4 -8 -9 -4 -5 3 -12
1 -15 -4 -7 -11 13 -9 33 3 9 6 12 5 7 -2 -3 -6 1 -17 9 -25 20 -20 19 -28 -2
-21 -17 5 -17 5 0 -6 9 -6 17 -22 17 -35 0 -15 6 -25 14 -25 8 0 17 -7 20 -16
6 -15 4 -15 -11 -3 -17 13 -17 13 0 -7 9 -11 17 -26 17 -33 0 -7 4 -10 9 -7 5
3 12 -1 15 -10 4 -9 2 -13 -5 -8 -17 10 5 -26 35 -58 14 -15 26 -32 26 -37 0
-6 9 -16 20 -23 11 -7 20 -18 20 -25 0 -7 6 -13 13 -13 8 0 7 -4 -3 -10 -10
-6 -11 -10 -3 -10 9 0 7 -6 -4 -20 -13 -14 -20 -17 -30 -8 -10 8 -13 7 -13 -5
0 -10 -7 -15 -20 -12 -11 2 -23 -1 -26 -7 -4 -7 -2 -8 4 -4 7 4 12 3 12 -2 0
-15 -28 -22 -34 -9 -2 7 -5 3 -5 -7 -1 -11 -4 -16 -8 -13 -3 4 -12 -1 -20 -11
-12 -16 -13 -16 -8 3 5 16 3 15 -6 -3 -7 -13 -18 -21 -26 -18 -7 3 -13 -1 -13
-10 0 -12 -7 -15 -25 -12 -22 5 -23 3 -13 -10 9 -11 9 -14 1 -9 -6 4 -14 3
-18 -2 -3 -6 -13 -7 -22 -4 -12 5 -14 3 -8 -7 6 -10 4 -12 -11 -6 -10 4 -15 4
-11 0 4 -4 2 -13 -4 -21 -9 -11 -15 -11 -28 -1 -9 7 -13 9 -9 4 10 -12 -15
-34 -31 -28 -9 3 -12 1 -7 -6 5 -8 -1 -12 -18 -12 -14 0 -28 -5 -32 -12 -4 -6
-3 -8 4 -4 6 3 14 1 18 -6 4 -7 4 -10 -1 -6 -4 4 -17 3 -28 -3 -15 -9 -18 -8
-13 3 4 7 -1 3 -10 -9 -9 -13 -27 -23 -41 -23 -18 0 -24 -4 -20 -14 4 -11 1
-13 -10 -9 -11 4 -14 2 -9 -5 5 -8 1 -10 -10 -5 -13 5 -15 3 -9 -8 7 -11 5
-11 -10 1 -10 8 -16 10 -12 3 4 -6 3 -14 -3 -18 -6 -4 -7 -11 -4 -17 4 -7 2
-8 -5 -4 -6 4 -9 11 -6 16 3 5 0 12 -6 16 -8 4 -9 3 -5 -4 4 -7 2 -12 -5 -12
-7 0 -9 -3 -6 -7 8 -7 -23 -32 -41 -33 -8 0 -10 5 -6 13 4 7 3 9 -2 4 -5 -5
-9 -14 -9 -20 0 -7 -7 -12 -15 -12 -8 0 -20 -7 -27 -15 -7 -8 -13 -11 -13 -7
0 4 -6 2 -14 -5 -10 -9 -11 -17 -4 -26 8 -9 7 -11 -7 -6 -13 5 -16 4 -11 -4 4
-7 2 -12 -5 -12 -7 0 -4 -6 7 -14 18 -14 18 -15 2 -21 -10 -4 -15 -11 -12 -16
3 -5 11 -7 17 -3 7 3 3 -2 -7 -10 -15 -12 -16 -16 -5 -17 11 0 11 -2 0 -6 -11
-5 -11 -7 0 -15 11 -8 12 -11 1 -15 -10 -4 -9 -8 4 -17 13 -10 14 -15 4 -21
-9 -6 -11 -4 -5 5 5 9 4 11 -4 6 -9 -6 -9 -11 -1 -21 6 -7 7 -21 3 -30 -4 -11
-2 -16 3 -12 5 3 10 -3 10 -13 0 -12 -4 -16 -11 -10 -7 6 -11 2 -11 -10 0 -10
4 -16 9 -13 5 3 6 -4 2 -17 -4 -13 -3 -20 2 -17 5 3 9 -3 9 -13 0 -12 -4 -16
-11 -10 -13 11 -14 -28 -2 -47 5 -8 3 -13 -5 -13 -10 0 -9 -3 2 -11 12 -8 12
-12 2 -16 -10 -4 -9 -8 4 -17 13 -10 14 -15 4 -21 -9 -6 -11 -4 -5 6 5 8 4 10
0 6 -13 -11 -15 -36 -4 -43 14 -8 11 -26 -3 -18 -10 5 -10 4 -1 -6 9 -9 9 -17
2 -26 -7 -8 -7 -14 1 -19 5 -3 10 -11 10 -16 0 -6 -4 -8 -9 -5 -11 7 -8 -21 4
-31 4 -4 5 -2 0 6 -6 10 -4 12 5 6 10 -6 9 -11 -5 -22 -12 -8 -14 -13 -6 -13
11 0 11 -3 0 -17 -10 -12 -10 -15 -1 -9 9 6 11 0 7 -24 -3 -17 -2 -29 3 -26 4
2 8 -4 8 -14 0 -12 -4 -16 -11 -10 -7 6 -11 2 -11 -10 0 -10 4 -16 9 -13 5 3
6 -4 2 -17 -4 -13 -3 -20 2 -17 5 3 9 -3 9 -13 0 -13 -4 -16 -11 -10 -8 7 -11
3 -9 -13 1 -12 3 -22 4 -22 1 0 3 -10 6 -21 2 -12 -3 -27 -11 -34 -11 -9 -15
-9 -15 -1 0 6 -5 11 -11 11 -5 0 -7 -4 -4 -10 9 -14 -4 -12 -19 3 -8 8 -38 12
-80 12 -38 -1 -66 3 -66 9 0 5 -7 1 -16 -10 -8 -10 -13 -14 -10 -7 4 6 2 14
-4 18 -5 3 -10 1 -10 -6 0 -9 -3 -9 -14 0 -11 9 -16 9 -22 0 -5 -8 -3 -9 6 -4
9 5 11 4 6 -4 -4 -6 -13 -8 -19 -4 -17 10 -77 10 -77 -1 0 -5 -8 -2 -17 5 -14
12 -16 12 -11 -1 4 -12 -3 -15 -33 -15 -24 -1 -35 3 -30 10 4 5 7 17 6 25 -1
8 3 26 7 39 7 19 5 22 -7 17 -13 -5 -13 -2 1 19 10 15 12 25 5 25 -6 0 -11 -5
-11 -12 0 -6 -3 -9 -6 -5 -3 3 -2 12 2 19 12 18 12 32 -1 40 -6 5 -5 8 3 8 9
0 10 5 2 19 -7 13 -7 22 0 26 15 9 12 27 -2 20 -7 -4 -4 1 6 9 18 14 15 21 -6
17 -5 0 -8 4 -8 9 0 6 7 10 16 10 8 0 12 5 9 10 -4 6 -12 8 -18 4 -7 -3 -3 2
7 10 15 12 16 16 5 16 -12 0 -12 2 1 10 8 5 10 10 4 10 -7 0 -14 7 -17 14 -4
10 -1 13 7 10 8 -3 17 0 21 6 3 6 1 9 -5 8 -7 -2 -14 4 -15 12 -2 8 -5 22 -7
30 -3 8 -3 12 -1 8 10 -17 23 -7 15 10 -5 9 -7 23 -4 31 3 9 0 11 -9 7 -8 -4
-5 0 5 8 18 14 15 21 -6 17 -5 0 -8 4 -8 9 0 6 7 10 16 10 8 0 12 5 9 10 -4 6
-12 8 -18 4 -7 -3 -3 2 7 10 15 12 16 16 5 16 -12 0 -12 2 1 10 8 5 10 10 4
10 -7 0 -14 7 -17 14 -4 10 -1 13 7 10 8 -3 17 0 21 6 3 6 1 9 -5 8 -7 -2 -14
4 -15 12 -2 8 -5 22 -7 30 -3 8 -3 12 -1 8 10 -17 23 -7 15 10 -5 9 -7 23 -4
31 3 9 0 11 -9 7 -8 -4 -5 0 5 8 18 14 15 21 -6 17 -5 0 -8 4 -8 9 0 6 7 10
15 10 21 0 19 20 -2 21 -11 0 -13 3 -5 6 6 2 12 9 12 14 0 6 -4 8 -8 5 -5 -3
-9 1 -9 8 0 9 7 12 16 8 12 -4 11 0 -4 17 -11 12 -15 21 -10 19 6 -2 10 2 10
7 0 5 -4 9 -10 7 -5 -2 -1 7 10 19 11 12 14 19 7 15 -8 -5 -21 -1 -33 10 -10
9 -19 14 -19 10 0 -3 -11 1 -25 10 -14 9 -22 21 -18 27 3 6 1 7 -5 3 -7 -4
-12 -2 -12 3 0 6 -11 11 -25 11 -14 0 -25 5 -25 10 0 6 -5 10 -11 10 -5 0 -7
-5 -3 -12 4 -7 3 -8 -4 -4 -6 4 -8 14 -5 23 5 13 2 15 -16 10 -17 -4 -24 0
-31 16 -5 12 -9 16 -9 9 -1 -7 -6 -10 -12 -7 -6 4 -8 13 -5 20 3 8 -2 11 -15
8 -11 -3 -19 0 -19 7 0 7 -8 10 -19 7 -14 -3 -18 -1 -14 9 3 9 -2 12 -17 9
-17 -3 -20 -1 -11 9 9 11 9 14 -1 13 -7 0 -24 1 -38 2 -20 1 -22 3 -10 11 13
8 13 10 -2 11 -31 3 -36 4 -44 12 -4 4 -1 7 6 7 7 0 10 3 7 6 -4 4 -15 1 -24
-7 -10 -7 -15 -10 -11 -5 3 4 -2 16 -13 27 -22 22 -34 25 -23 7 5 -9 2 -9 -9
1 -9 7 -17 21 -18 30 0 12 -2 11 -9 -4 -7 -17 -9 -17 -9 -3 -1 12 -6 15 -18
11 -11 -4 -14 -3 -9 5 6 11 -5 17 -26 13 -5 0 -8 3 -8 7 0 5 -18 17 -40 27
-22 10 -40 24 -40 32 0 8 -5 11 -10 8 -13 -8 -52 4 -45 15 3 4 -7 11 -21 14
-21 6 -24 9 -14 21 10 12 10 15 1 15 -8 0 -7 5 3 15 8 8 19 15 25 15 6 0 7 7
4 17 -4 9 -2 14 3 11 5 -3 15 0 22 8 8 9 9 14 2 14 -6 0 -8 5 -5 10 4 6 11 8
16 5 5 -4 9 -1 9 5 0 6 6 8 13 4 9 -5 9 -4 0 6 -10 11 -9 16 5 27 9 8 11 11 3
7 -10 -5 -12 -3 -7 5 5 7 15 10 23 6 13 -4 14 -3 3 10 -12 14 -7 19 13 16 5
-1 6 3 2 9 -3 5 -1 10 4 10 6 0 11 5 11 11 0 5 -6 7 -12 4 -7 -4 -3 2 10 12
18 15 20 21 10 31 -11 11 -10 13 2 10 10 -2 14 3 12 15 -2 9 2 17 8 17 6 0 8
5 5 10 -3 6 -1 10 5 10 6 0 8 5 5 10 -4 6 -11 7 -17 4 -7 -4 -8 -2 -4 4 4 6
13 9 21 5 9 -3 15 1 15 10 0 10 7 13 20 10 11 -3 18 -8 16 -12z m844 -41 c0
-5 -5 -10 -11 -10 -5 0 -7 5 -4 10 3 6 8 10 11 10 2 0 4 -4 4 -10z m1878 -132
c-2 -7 7 -13 18 -13 28 -1 94 -46 86 -60 -3 -5 2 -4 12 4 15 12 17 12 14 0 -2
-9 4 -13 15 -11 9 2 17 -3 17 -11 0 -8 8 -14 18 -13 12 1 16 -5 14 -19 -2 -11
1 -16 5 -10 11 13 36 18 28 5 -5 -8 12 -14 36 -12 3 0 5 -10 5 -23 0 -13 -3
-22 -7 -19 -4 2 -12 -3 -19 -11 -10 -12 -16 -13 -28 -3 -13 11 -15 10 -10 -3
4 -10 1 -16 -8 -16 -8 0 -14 5 -14 11 0 8 -2 8 -8 0 -4 -6 -16 -14 -27 -18
-16 -6 -17 -9 -5 -16 11 -7 10 -9 -7 -7 -12 0 -19 5 -16 10 3 5 -4 4 -15 -2
-12 -6 -25 -11 -29 -10 -19 3 -34 -2 -29 -9 3 -5 -1 -9 -9 -9 -8 0 -12 4 -9 9
3 4 -2 8 -11 8 -9 0 -13 -5 -9 -11 4 -8 0 -8 -15 0 -16 9 -19 9 -16 -2 4 -8
-2 -13 -14 -13 -11 0 -18 3 -15 7 5 9 -17 6 -33 -4 -8 -5 -13 -3 -13 4 0 10
-3 10 -12 1 -8 -8 -15 -8 -24 -1 -8 7 -14 7 -19 -1 -5 -8 -12 -5 -22 7 -8 10
-11 12 -7 4 5 -11 3 -13 -9 -8 -10 3 -17 2 -17 -4 0 -5 -9 -1 -21 9 -12 12
-28 18 -41 14 -11 -3 -24 1 -29 9 -6 10 -9 10 -9 2 0 -7 -5 -13 -11 -13 -5 0
-8 4 -5 9 4 5 -3 7 -14 4 -12 -3 -20 0 -20 7 0 9 -4 9 -17 -1 -16 -13 -17 -12
-4 4 7 9 20 17 27 17 8 0 14 5 14 10 0 5 6 9 13 7 6 -1 11 4 9 12 -2 9 4 12
18 8 11 -3 18 -2 16 1 -2 4 2 13 10 20 9 8 14 9 14 2 0 -7 5 -6 14 2 8 7 12
16 9 21 -2 4 1 7 6 7 6 0 11 -4 11 -10 0 -5 4 -10 10 -10 5 0 6 7 3 17 -4 11
-3 14 5 9 7 -4 12 -2 12 5 0 7 3 10 6 6 9 -9 33 16 26 28 -3 6 3 3 13 -5 17
-14 18 -13 11 5 -5 15 -4 17 4 9 9 -9 18 -5 36 13 13 13 29 21 34 18 6 -3 13
1 16 10 4 9 13 14 20 11 8 -3 13 -2 13 2 -2 12 1 22 6 22 3 0 4 -6 3 -12z
m-3911 -13 c4 -4 2 -5 -6 0 -9 5 -12 4 -7 -3 4 -6 13 -9 21 -6 8 4 18 -1 21
-10 3 -9 10 -16 16 -16 5 0 6 4 3 10 -3 6 1 7 9 4 9 -3 13 -10 10 -15 -3 -5 4
-9 14 -9 11 0 26 -8 33 -17 13 -17 13 -17 -6 -3 -19 14 -19 14 -6 -3 11 -14
16 -15 29 -5 13 11 14 11 7 -1 -6 -11 -4 -13 8 -8 11 4 14 2 11 -7 -3 -7 2
-16 11 -20 11 -4 14 -2 10 7 -4 6 0 4 9 -7 8 -10 19 -15 25 -11 6 3 11 0 11
-8 0 -8 7 -18 16 -21 12 -5 14 -3 8 7 -5 7 -2 6 6 -3 9 -9 21 -15 28 -12 11 3
17 -10 13 -31 -1 -4 8 -3 19 3 11 6 20 7 21 3 0 -4 2 -15 4 -24 3 -16 -2 -18
-55 -21 -20 -1 -29 -6 -26 -14 5 -13 -23 -12 -44 1 -6 3 -10 1 -10 -6 0 -10
-3 -10 -11 -2 -14 14 -41 5 -32 -11 4 -6 0 -6 -9 2 -13 10 -17 10 -21 0 -4
-10 -8 -10 -16 2 -10 13 -11 13 -11 0 0 -12 -2 -12 -9 -1 -5 7 -11 9 -14 4 -5
-8 -31 -9 -80 -4 -5 1 -5 6 -2 12 4 6 -3 5 -15 -3 -18 -11 -22 -11 -31 5 -8
13 -14 15 -30 7 -11 -7 -19 -7 -19 -1 0 5 -17 8 -37 6 -21 -1 -32 -1 -25 2 6
3 12 10 12 16 0 5 -3 7 -7 4 -3 -4 -13 -1 -21 6 -13 10 -15 9 -9 -7 6 -16 5
-17 -8 -6 -8 7 -12 17 -8 24 4 7 1 7 -7 -1 -11 -10 -16 -9 -27 5 -8 9 -12 11
-8 5 9 -18 2 -16 -25 7 -12 11 -27 17 -31 14 -17 -10 -9 5 13 25 17 17 24 18
37 8 12 -9 13 -9 7 1 -4 7 -2 12 6 12 9 0 9 3 -2 11 -12 8 -10 9 10 7 18 -2
24 1 22 12 -2 8 -1 12 3 8 3 -3 18 0 32 7 15 8 31 11 36 8 6 -3 7 -1 3 5 -4 7
-1 12 8 12 8 0 20 8 25 18 8 13 10 14 11 2 0 -13 2 -13 9 0 6 8 7 18 4 23 -3
5 4 4 16 -2 12 -7 21 -8 20 -4 -4 22 21 27 38 8z m2860 -30 c0 -8 -4 -12 -9
-9 -5 3 -6 10 -3 15 9 13 12 11 12 -6z m-3794 -140 c-3 -9 -8 -14 -10 -11 -3
3 -2 9 2 15 9 16 15 13 8 -4z m874 -80 c0 -8 -4 -12 -9 -9 -5 3 -6 10 -3 15 9
13 12 11 12 -6z m3728 6 c3 -5 2 -12 -3 -15 -5 -3 -9 1 -9 9 0 17 3 19 12 6z
m-4249 -97 c-5 -12 -2 -15 10 -10 11 4 18 -1 21 -15 4 -16 8 -17 14 -7 7 11 9
11 9 -1 0 -8 6 -11 16 -7 10 4 18 0 21 -13 3 -13 10 -18 21 -14 10 4 13 2 8
-5 -7 -11 -3 -13 31 -16 6 -1 21 -10 34 -21 12 -11 19 -14 15 -7 -7 11 -4 11
13 0 12 -7 21 -16 21 -20 0 -5 11 -8 25 -8 14 0 25 -6 25 -12 0 -9 4 -8 10 2
6 10 10 11 10 3 0 -7 7 -13 16 -13 9 0 12 -5 8 -12 -5 -9 -2 -8 10 1 14 12 19
12 29 1 10 -10 9 -11 -2 -5 -9 5 -12 4 -8 -3 4 -5 16 -8 27 -5 13 3 20 0 20
-8 0 -11 2 -11 10 1 7 12 12 12 22 2 16 -16 31 -16 22 1 -6 8 -3 8 9 -1 9 -8
22 -10 28 -6 7 4 9 3 6 -3 -4 -6 2 -13 13 -16 11 -3 18 -1 14 4 -3 5 2 9 10 9
8 0 18 -4 21 -10 9 -15 27 -12 19 3 -5 9 -4 9 6 0 11 -10 17 -10 29 0 9 8 12
8 8 1 -4 -7 3 -14 18 -16 13 -3 22 -2 19 3 -2 4 12 5 32 2 25 -4 39 -2 45 8 6
10 9 10 9 2 0 -7 5 -13 11 -13 5 0 7 6 3 13 -5 7 0 6 11 -3 11 -9 16 -10 11
-2 -4 6 -2 12 3 12 6 0 11 -5 11 -11 0 -8 6 -7 17 2 14 12 16 12 9 -1 -4 -8 0
-6 8 4 16 20 16 20 17 0 0 -17 1 -16 9 4 5 12 12 22 15 22 4 0 4 -4 0 -9 -3
-6 4 -9 15 -8 11 1 20 6 20 12 0 5 5 3 10 -5 7 -12 10 -12 10 -1 0 7 6 11 15
7 8 -3 15 0 15 6 0 7 5 6 15 -2 13 -11 14 -10 8 6 -6 17 -5 18 12 4 10 -8 16
-10 12 -4 -4 7 1 15 11 19 27 13 43 14 36 4 -3 -5 -9 -7 -14 -4 -5 3 -11 1
-14 -4 -10 -15 26 -6 38 10 6 8 21 14 34 13 14 -1 21 3 19 10 -3 7 5 13 16 14
12 0 28 9 36 19 12 16 13 16 8 1 -3 -10 -2 -20 4 -23 5 -4 8 -1 7 6 -2 7 14
21 35 31 20 10 37 23 37 29 0 5 5 7 10 4 6 -4 8 -11 5 -16 -3 -5 1 -6 10 -3
19 8 47 -14 38 -30 -4 -6 0 -5 9 2 14 11 18 10 28 -7 6 -12 17 -21 25 -21 8 0
15 -4 15 -10 0 -5 5 -10 11 -10 5 0 7 6 3 13 -9 15 26 -12 42 -32 7 -8 16 -11
24 -6 9 6 11 4 5 -5 -6 -9 -1 -10 16 -5 17 4 20 3 10 -3 -17 -12 -5 -33 14
-25 8 3 15 0 15 -6 0 -6 7 -11 16 -11 9 0 23 -8 32 -18 10 -10 13 -12 8 -5
-12 18 -3 16 22 -6 12 -10 18 -22 14 -27 -4 -4 2 -2 12 6 11 8 17 10 14 5 -4
-6 2 -17 14 -24 11 -7 17 -8 13 -2 -3 6 -1 11 4 11 6 0 11 -10 11 -21 0 -17 3
-19 14 -10 12 10 17 8 26 -8 6 -12 14 -20 18 -20 20 3 33 -2 27 -11 -3 -5 1
-11 9 -11 27 -2 30 -4 53 -20 13 -9 20 -18 17 -22 -3 -3 5 -3 18 0 18 4 20 3
8 -6 -12 -9 -10 -11 13 -11 16 0 26 -4 22 -10 -3 -5 1 -11 9 -11 9 -1 20 -2
25 -3 5 0 18 -11 29 -23 10 -13 23 -19 27 -15 5 4 5 1 1 -6 -6 -11 -11 -11
-24 0 -15 12 -16 11 -3 -4 7 -10 10 -18 6 -18 -4 0 -1 -8 6 -17 12 -15 12 -16
-3 -10 -26 10 -22 -2 5 -13 14 -5 16 -9 6 -9 -18 -1 -21 -30 -5 -50 9 -12 8
-13 -6 -8 -26 10 -22 -2 5 -13 14 -5 16 -9 6 -9 -18 -1 -21 -30 -5 -50 9 -12
8 -13 -6 -8 -26 10 -22 -2 5 -13 14 -5 16 -9 6 -9 -18 -1 -21 -30 -5 -50 9
-12 8 -13 -6 -8 -26 10 -22 -2 5 -13 14 -5 16 -9 6 -9 -18 -1 -21 -30 -5 -50
9 -12 8 -13 -6 -8 -26 10 -22 -2 5 -13 14 -5 16 -9 6 -9 -18 -1 -21 -30 -5
-50 9 -12 8 -13 -6 -8 -26 10 -22 -2 5 -13 19 -7 19 -9 3 -9 -16 -1 -17 -3 -5
-18 12 -14 12 -16 0 -8 -11 6 -13 4 -8 -8 4 -10 10 -24 13 -32 4 -10 1 -14 -7
-12 -8 2 -11 2 -6 0 4 -3 4 -10 1 -15 -4 -7 -2 -8 4 -4 8 5 12 0 12 -13 0 -12
-5 -21 -12 -21 -6 0 -3 -7 8 -16 18 -15 18 -15 0 -10 -16 6 -17 4 -6 -9 10
-12 9 -15 -6 -15 -17 0 -17 -1 2 -16 19 -15 19 -16 -1 -10 -17 5 -18 4 -5 -6
18 -15 25 -58 9 -58 -5 0 -7 5 -3 12 4 7 3 8 -5 4 -8 -5 -7 -13 4 -29 20 -28
19 -38 -2 -31 -15 5 -16 4 -3 -5 8 -6 11 -11 7 -11 -4 0 -3 -9 3 -20 9 -16 8
-18 -5 -14 -11 5 -15 0 -15 -17 0 -13 -4 -19 -8 -14 -11 16 -32 16 -26 0 4
-10 0 -13 -15 -10 -11 2 -24 -1 -27 -7 -4 -7 -2 -8 4 -4 7 4 12 1 12 -8 0 -10
-6 -13 -15 -10 -8 4 -15 1 -15 -5 0 -6 -5 -11 -11 -11 -5 0 -7 5 -3 12 4 7 3
8 -4 4 -7 -4 -12 -14 -12 -22 0 -8 -6 -13 -12 -12 -7 2 -12 -3 -10 -11 2 -8
-3 -11 -12 -8 -9 4 -18 2 -21 -3 -3 -4 1 -11 7 -13 7 -3 4 -6 -7 -6 -11 -1
-27 -6 -35 -12 -13 -9 -12 -10 3 -5 11 3 16 2 12 -4 -3 -6 -15 -10 -25 -10
-10 0 -22 -5 -26 -12 -4 -7 -3 -8 4 -4 7 4 12 2 12 -3 0 -6 -9 -11 -20 -11
-11 0 -20 -5 -20 -11 0 -5 5 -7 10 -4 5 3 10 4 10 0 0 -3 -11 -10 -25 -15 -14
-5 -25 -16 -25 -24 0 -8 -11 -23 -25 -34 -13 -11 -22 -22 -18 -26 9 -8 -28
-47 -39 -40 -4 3 -8 2 -7 -3 4 -22 -3 -33 -18 -33 -15 0 -16 -2 -3 -10 12 -8
12 -10 -2 -15 -9 -4 -14 -13 -12 -20 3 -7 0 -16 -7 -21 -8 -5 -10 -3 -4 6 5 8
4 11 -3 7 -5 -4 -8 -16 -5 -27 3 -12 0 -20 -7 -20 -7 0 -10 -7 -7 -14 4 -10 1
-13 -8 -10 -9 4 -13 -3 -11 -25 1 -16 -3 -29 -8 -28 -6 1 -11 -5 -11 -14 0 -9
-7 -24 -14 -33 -8 -10 -14 -37 -15 -61 0 -27 -4 -41 -11 -39 -6 3 -11 -6 -12
-18 -2 -18 0 -20 7 -8 11 17 13 9 4 -14 -3 -9 -9 -14 -13 -11 -4 2 -8 -2 -8
-10 0 -8 3 -12 7 -10 4 2 7 -2 7 -10 0 -8 -5 -11 -10 -8 -6 4 -8 -3 -5 -15 4
-15 0 -25 -10 -32 -10 -5 -12 -10 -7 -10 6 0 11 -9 12 -20 1 -13 -2 -18 -10
-13 -9 5 -9 3 0 -8 9 -12 10 -18 1 -27 -8 -8 -8 -15 0 -25 7 -8 9 -17 5 -21
-10 -10 -11 -46 -1 -40 11 7 10 -7 -1 -26 -6 -8 -7 -19 -3 -24 3 -6 8 -28 9
-49 2 -28 0 -36 -9 -31 -8 5 -9 2 -5 -10 4 -10 3 -15 -3 -11 -6 3 -10 1 -10
-6 0 -8 -4 -8 -13 -1 -10 9 -18 6 -32 -11 -11 -12 -18 -26 -17 -31 2 -5 -5 -3
-14 5 -12 9 -15 9 -10 2 4 -7 5 -13 2 -13 -2 0 -12 -3 -22 -7 -13 -5 -15 -3
-9 7 5 9 4 11 -4 6 -9 -6 -9 -11 -1 -21 9 -11 6 -13 -14 -11 -17 2 -26 -2 -26
-11 0 -8 -5 -11 -10 -8 -6 3 -13 -1 -16 -9 -5 -13 -10 -13 -27 -4 -20 10 -21
10 -8 -6 8 -9 10 -16 5 -14 -5 1 -19 -3 -30 -10 -12 -6 -25 -8 -29 -4 -5 4 -5
2 -1 -5 4 -8 -5 -18 -25 -28 -23 -12 -29 -13 -23 -3 6 10 5 10 -9 -1 -9 -7
-14 -17 -11 -22 3 -5 -2 -6 -10 -3 -9 4 -16 1 -16 -6 0 -7 -7 -10 -16 -6 -12
4 -15 2 -11 -9 7 -18 -9 -30 -19 -14 -5 8 -3 9 6 4 9 -6 11 -4 5 5 -6 11 -10
10 -19 -2 -6 -8 -19 -17 -28 -21 -10 -3 -18 -11 -18 -17 0 -5 -9 -10 -21 -10
-11 0 -18 -4 -14 -9 3 -6 -3 -8 -14 -6 -15 3 -18 0 -14 -13 3 -9 3 -14 -2 -10
-4 4 -15 2 -23 -5 -13 -10 -14 -9 -8 1 7 11 4 11 -12 1 -12 -7 -19 -16 -16
-20 6 -11 -24 -19 -43 -12 -10 4 -14 2 -10 -4 7 -11 -15 -35 -29 -32 -20 3
-35 -2 -30 -10 7 -11 -22 -23 -35 -16 -5 4 -6 -1 -3 -9 4 -11 -1 -14 -19 -12
-19 2 -24 -1 -19 -12 3 -10 1 -13 -6 -8 -7 4 -12 2 -12 -5 0 -8 -5 -7 -17 2
-12 10 -15 11 -9 1 6 -9 1 -11 -19 -8 -15 3 -30 8 -34 12 -3 4 2 4 12 1 9 -4
17 -2 17 3 0 6 -12 10 -26 10 -17 0 -23 4 -18 13 6 9 5 9 -7 0 -12 -10 -21 -6
-46 18 -18 16 -37 29 -42 29 -6 0 -11 6 -12 13 0 9 -2 9 -5 0 -4 -8 -11 -7
-23 5 -10 9 -16 22 -13 27 3 6 -1 4 -8 -2 -11 -10 -17 -8 -31 13 -10 16 -19
22 -23 15 -8 -12 -27 -15 -25 -3 1 4 1 14 0 22 -1 13 -2 13 -11 0 -6 -10 -10
-11 -10 -2 0 6 -7 12 -15 12 -9 0 -18 7 -22 16 -5 13 -7 13 -14 2 -7 -10 -9
-9 -9 5 0 11 -8 17 -22 17 -19 0 -20 2 -8 11 12 9 11 10 -7 6 -13 -3 -23 -1
-23 5 0 6 -7 7 -16 4 -8 -3 -13 -2 -10 3 3 5 -8 14 -24 20 -17 5 -30 15 -30
20 0 6 -6 10 -13 9 -6 -2 -11 3 -9 11 3 12 0 12 -13 1 -13 -11 -15 -10 -9 4 5
12 2 15 -12 9 -13 -5 -15 -3 -9 8 7 11 6 12 -7 2 -17 -15 -29 -7 -21 13 4 10
0 12 -11 8 -10 -4 -18 0 -22 10 -4 10 -15 16 -28 14 -17 -2 -21 2 -18 22 1 17
-1 21 -7 11 -6 -10 -13 -10 -28 -2 -11 5 -24 7 -28 3 -3 -4 -5 0 -3 8 2 8 -3
14 -9 12 -7 -1 -13 3 -13 9 0 5 -5 7 -10 4 -6 -3 -10 -1 -10 4 0 6 -9 11 -20
11 -11 0 -20 5 -20 10 0 6 5 10 12 10 6 0 8 3 5 6 -4 4 -13 1 -22 -6 -12 -10
-15 -9 -15 5 0 10 -3 16 -6 12 -7 -6 -81 30 -90 44 -3 5 -10 6 -16 3 -7 -4 -8
-2 -4 4 4 7 1 12 -9 12 -10 0 -13 5 -9 12 5 9 2 9 -9 -1 -12 -9 -17 -10 -17
-2 0 7 -4 10 -9 6 -6 -3 -8 3 -6 15 2 11 -1 23 -7 26 -6 4 -8 2 -4 -4 3 -6 2
-13 -4 -17 -5 -3 -10 2 -10 12 0 15 -2 16 -10 3 -8 -13 -14 -8 -12 10 0 3 -9
7 -21 7 -12 1 -26 9 -32 17 -6 8 -18 16 -26 18 -8 2 -22 12 -31 22 -13 14 -18
15 -19 5 0 -10 -2 -11 -6 -1 -2 6 -9 10 -14 7 -5 -4 -6 1 -3 9 4 11 0 13 -14
9 -11 -2 -23 1 -27 8 -6 8 -4 10 5 4 9 -5 11 -4 6 4 -6 9 -11 9 -24 -1 -12
-10 -14 -10 -8 0 4 7 2 12 -4 12 -6 0 -8 5 -4 12 4 6 3 8 -4 4 -6 -3 -14 -1
-17 5 -4 5 -13 8 -21 5 -8 -3 -20 3 -26 14 -7 11 -18 20 -25 20 -7 0 -13 5
-13 10 0 6 -6 10 -13 10 -8 0 -13 17 -15 51 -2 38 1 48 10 43 8 -5 8 -1 -1 10
-13 15 -13 19 0 27 8 5 10 9 4 9 -5 0 -11 18 -12 40 -2 30 1 39 10 34 7 -5 6
-1 -2 10 -13 15 -13 19 0 27 10 6 10 9 2 9 -7 0 -13 9 -13 20 0 11 6 20 13 20
8 0 7 4 -3 10 -13 9 -13 11 0 20 10 6 11 10 3 10 -7 0 -13 9 -13 21 0 13 4 18
13 13 7 -5 7 -1 -2 10 -13 15 -13 19 0 27 10 6 10 9 2 9 -7 0 -13 9 -13 20 0
11 6 20 13 20 8 0 7 4 -3 10 -13 9 -13 11 0 20 8 5 11 10 5 10 -15 0 -17 160
-2 160 7 0 6 4 -3 10 -13 9 -13 11 0 20 8 5 11 10 5 10 -15 0 -16 280 -1 280
6 0 4 5 -4 10 -13 9 -13 11 0 20 8 5 11 10 5 10 -6 0 -10 34 -11 80 -1 56 2
77 10 73 6 -4 5 1 -3 11 -13 15 -13 19 0 27 10 6 10 9 2 9 -7 0 -13 9 -13 20
0 11 6 20 13 20 8 0 7 4 -3 10 -13 9 -13 11 0 20 10 6 11 10 3 10 -7 0 -13 9
-13 21 0 13 4 18 13 13 7 -5 7 -1 -2 10 -13 15 -13 19 0 27 10 6 10 9 2 9 -7
0 -13 9 -13 20 0 11 6 20 13 20 8 0 7 4 -3 10 -13 9 -13 11 0 20 8 5 10 10 4
10 -15 0 -18 80 -2 80 9 0 9 3 -2 10 -13 9 -13 11 0 20 8 5 10 10 4 10 -6 0
-10 12 -9 28 1 15 -3 36 -8 47 -9 18 -9 19 7 6 15 -12 17 -12 14 0 -2 8 4 13
14 13 11 -1 15 5 13 16 -3 14 1 16 17 12 16 -4 19 -2 13 9 -7 11 -5 11 10 -1
11 -9 16 -10 11 -2 -4 6 -2 13 3 13 6 1 15 2 20 3 5 0 13 5 18 10 5 6 2 6 -7
1 -13 -7 -13 -6 -2 7 6 8 23 14 37 12 14 -1 23 2 19 7 -3 5 -10 6 -16 3 -6 -4
-8 -2 -4 4 3 6 15 9 26 7 13 -3 20 2 21 13 0 10 3 12 6 5 3 -10 7 -10 18 0 7
7 11 15 8 19 -2 4 4 5 13 1 13 -5 15 -3 9 7 -6 10 -3 12 13 8 14 -4 22 -2 22
7 0 13 54 39 77 38 7 0 11 3 8 7 -3 4 3 14 12 21 12 10 14 10 9 2 -4 -7 -2
-13 3 -13 6 0 11 7 11 17 0 9 3 13 7 10 3 -4 12 1 20 11 8 9 12 11 8 5 -3 -7
-1 -13 4 -13 6 0 11 10 11 22 0 21 0 21 16 2 8 -10 13 -14 10 -8 -3 7 2 18 11
25 14 12 16 12 8 -1 -7 -12 -4 -12 15 2 14 9 24 22 22 29 -2 9 2 8 14 -2 12
-9 15 -9 10 -1 -4 7 -2 12 4 12 6 0 8 5 4 13 -5 7 0 6 11 -3 10 -8 16 -10 12
-4 -4 7 1 18 10 25 12 10 14 10 9 2 -4 -7 -2 -13 3 -13 6 0 11 5 11 11 0 5 5
7 12 3 8 -5 9 -2 4 11 -5 14 -4 15 7 7 10 -8 16 -6 25 9 7 10 19 19 28 19 9 0
12 5 8 13 -5 7 0 6 11 -3 10 -8 16 -10 12 -4 -4 7 1 18 10 25 9 8 14 9 10 2
-5 -7 0 -9 13 -6 11 3 20 10 20 15 0 5 -6 6 -12 2 -7 -4 -10 -3 -5 1 4 5 18
10 30 12 12 2 24 8 25 13 2 6 15 10 29 10 19 0 24 -4 19 -16z m5094 6 c0 -5 7
-10 15 -10 8 0 15 -4 15 -9 0 -5 7 -12 16 -15 12 -5 14 -3 8 7 -5 7 2 1 15
-13 13 -14 20 -18 16 -10 -4 10 -1 9 8 -2 8 -10 22 -18 31 -18 9 0 16 -6 16
-14 0 -9 9 -13 25 -12 13 2 23 0 21 -3 -4 -6 26 -38 31 -33 2 1 9 2 16 2 8 0
7 -4 -3 -11 -13 -9 -12 -10 3 -5 23 7 49 -3 40 -17 -4 -6 0 -8 10 -4 10 3 17
2 17 -4 0 -6 5 -7 10 -4 6 3 10 2 10 -4 0 -5 -6 -12 -12 -15 -7 -3 -1 -3 14 0
20 4 30 1 39 -15 10 -15 16 -17 26 -9 10 8 13 6 13 -6 0 -10 5 -14 10 -11 6 3
10 2 10 -3 0 -5 14 -15 30 -22 17 -7 30 -16 30 -21 0 -5 9 -9 20 -9 11 0 20
-7 20 -15 0 -8 5 -15 11 -15 5 0 7 6 3 13 -4 6 2 3 14 -7 12 -11 22 -16 22
-12 0 4 10 -2 22 -13 11 -11 26 -18 31 -14 6 3 7 1 3 -5 -4 -7 -1 -12 9 -12
10 0 13 -5 9 -12 -5 -8 0 -7 11 2 15 12 17 12 10 1 -6 -11 -4 -13 8 -8 12 4
14 2 10 -10 -5 -12 -2 -15 10 -10 9 3 19 2 22 -4 4 -5 10 -7 15 -4 11 7 33
-22 25 -35 -4 -7 2 -7 19 0 22 8 24 7 21 -11 -4 -17 -2 -19 10 -9 12 10 15 9
15 -4 0 -9 4 -16 8 -16 4 0 8 -22 9 -50 0 -35 -3 -48 -11 -43 -6 4 -5 -1 3
-11 13 -15 13 -19 0 -27 -8 -5 -9 -9 -4 -9 6 0 11 -27 11 -60 1 -42 -2 -58
-10 -53 -6 4 -5 -1 3 -11 13 -15 13 -19 0 -27 -8 -5 -9 -9 -4 -9 6 0 11 -27
11 -60 1 -42 -2 -58 -10 -53 -6 4 -5 -1 3 -11 13 -15 13 -19 0 -27 -8 -5 -9
-9 -4 -9 6 0 11 -47 12 -120 1 -91 -1 -119 -10 -113 -7 4 -6 -1 2 -11 13 -15
13 -19 0 -27 -8 -5 -9 -9 -4 -9 6 0 11 -18 12 -40 1 -29 -2 -38 -10 -33 -7 4
-6 -1 2 -11 13 -15 13 -19 0 -27 -8 -5 -9 -9 -4 -9 6 0 11 -18 12 -40 1 -29
-2 -38 -10 -33 -7 4 -6 -1 2 -11 13 -15 13 -19 0 -27 -8 -5 -9 -9 -3 -9 7 0
10 -61 11 -180 1 -133 -2 -178 -11 -173 -6 4 -5 -1 3 -11 13 -15 13 -19 0 -27
-8 -5 -9 -9 -4 -9 6 0 11 -18 12 -40 1 -29 -2 -38 -10 -33 -7 4 -6 -1 2 -11
13 -15 13 -19 0 -27 -8 -5 -9 -9 -4 -9 6 0 11 -18 12 -40 1 -29 -2 -38 -10
-33 -7 4 -6 -1 2 -11 13 -15 13 -19 0 -27 -8 -5 -9 -9 -3 -9 5 0 10 -11 10
-24 0 -18 -4 -22 -20 -19 -17 4 -18 3 -6 -6 13 -9 12 -11 -3 -11 -10 0 -15 -4
-12 -10 4 -6 -1 -7 -11 -3 -13 5 -15 3 -9 -8 7 -11 5 -11 -10 1 -11 9 -16 10
-11 3 4 -8 2 -13 -4 -13 -6 0 -8 -6 -4 -12 4 -7 4 -10 -1 -6 -4 4 -15 2 -23
-5 -13 -10 -14 -9 -7 3 6 11 3 10 -12 -3 -11 -9 -22 -14 -25 -11 -3 3 -9 0
-14 -7 -5 -8 -3 -10 6 -4 9 6 11 4 6 -4 -5 -7 -14 -10 -22 -7 -13 5 -19 -6
-15 -27 1 -5 -3 -6 -9 -2 -14 9 -52 -4 -45 -16 4 -5 -3 -9 -14 -9 -12 0 -21
-6 -21 -12 0 -10 -2 -10 -9 0 -6 10 -10 8 -14 -8 -3 -12 -10 -19 -15 -16 -15
9 -43 -4 -35 -17 4 -7 0 -8 -12 -4 -14 6 -16 3 -12 -15 5 -21 5 -21 -7 -6 -12
16 -13 16 -26 -2 -10 -15 -16 -16 -22 -7 -5 8 -8 7 -8 -5 0 -9 -5 -20 -12 -24
-6 -4 -8 -3 -5 3 3 5 0 10 -8 10 -8 0 -12 -4 -9 -9 9 -14 -7 -30 -20 -19 -8 7
-17 6 -26 -1 -12 -8 -11 -8 5 -3 16 5 18 4 7 -7 -7 -7 -17 -14 -23 -14 -5 -1
-14 -2 -20 -3 -5 0 -8 -5 -4 -10 3 -6 -4 -8 -16 -6 -14 3 -19 0 -16 -9 4 -9
-2 -13 -16 -12 -13 1 -22 -5 -22 -14 0 -10 -8 -14 -24 -12 -19 3 -22 0 -17
-14 5 -14 4 -15 -8 -5 -11 9 -15 8 -19 -3 -4 -9 -15 -13 -26 -11 -15 3 -18 0
-14 -12 4 -11 2 -14 -5 -9 -8 4 -12 0 -12 -11 0 -14 -2 -15 -9 -4 -7 11 -12
10 -27 -7 -10 -12 -21 -19 -26 -16 -4 3 -8 0 -8 -7 0 -7 -3 -9 -7 -6 -3 4 -12
-2 -20 -12 -8 -12 -22 -18 -38 -17 -13 2 -22 -1 -19 -5 5 -9 -44 -34 -60 -30
-5 1 -6 -5 -3 -13 4 -10 1 -13 -9 -9 -7 3 -14 0 -14 -6 0 -6 -7 -8 -15 -5 -8
4 -17 -1 -21 -10 -3 -9 -10 -14 -14 -11 -5 3 -11 1 -15 -5 -4 -6 -11 -7 -17
-4 -7 4 -8 2 -4 -4 4 -7 2 -12 -4 -12 -6 0 -8 -5 -4 -11 4 -8 0 -8 -15 0 -17
9 -20 9 -15 -3 3 -8 0 -17 -7 -22 -8 -4 -10 -3 -5 4 11 18 -4 14 -22 -6 -10
-10 -12 -11 -7 -2 6 8 -7 0 -28 -18 -21 -17 -45 -32 -53 -32 -8 0 -12 -5 -9
-10 4 -6 3 -9 -2 -8 -14 4 -53 -13 -53 -23 0 -6 -4 -7 -10 -4 -5 3 -10 1 -10
-5 0 -6 -4 -9 -9 -6 -5 3 -11 -1 -15 -9 -3 -8 -11 -15 -18 -15 -9 0 -8 3 2 10
11 7 12 10 2 10 -8 0 -16 -9 -19 -21 -4 -16 -8 -17 -14 -7 -7 10 -9 9 -9 -5 0
-10 -5 -15 -10 -12 -6 4 -17 1 -25 -5 -11 -9 -17 -7 -27 9 -7 12 -21 21 -30
21 -10 0 -18 5 -18 11 0 6 -7 8 -16 5 -8 -3 -13 -2 -10 3 3 5 -2 15 -11 22
-14 12 -16 12 -9 -1 6 -11 4 -11 -6 1 -7 9 -21 15 -30 13 -20 -3 -24 12 -5 19
6 3 2 5 -10 6 -13 1 -33 1 -45 2 -13 1 -17 3 -10 6 6 3 12 9 12 15 0 6 -7 7
-15 4 -9 -3 -18 1 -21 9 -4 8 -10 12 -15 9 -5 -3 -9 0 -9 6 0 6 -4 9 -9 5 -6
-3 -14 3 -20 12 -8 14 -11 15 -11 3 -1 -11 -4 -10 -13 5 -7 11 -21 22 -32 23
-11 2 -23 10 -27 17 -5 7 -18 11 -30 8 -19 -4 -20 -3 -8 6 13 9 12 11 -3 11
-11 0 -15 5 -11 11 4 7 0 9 -13 5 -12 -4 -25 -1 -33 9 -7 8 -19 15 -27 15 -8
0 -11 5 -7 12 5 8 2 9 -10 5 -14 -5 -17 -3 -12 8 7 18 -5 20 -23 3 -11 -11
-13 -9 -8 10 4 19 3 21 -9 11 -11 -9 -14 -9 -14 1 0 7 -7 10 -14 7 -10 -4 -13
-1 -10 8 4 10 0 13 -16 10 -12 -2 -23 2 -27 10 -3 8 -11 15 -19 15 -8 0 -14 5
-14 12 0 6 -3 9 -6 5 -4 -3 -14 2 -23 11 -9 10 -14 13 -11 7 3 -6 -3 -2 -12 8
-13 13 -18 15 -18 6 0 -11 -2 -11 -9 1 -6 8 -7 18 -5 22 3 4 0 8 -5 8 -6 0
-11 -6 -12 -12 0 -10 -2 -10 -6 0 -2 6 -11 12 -19 12 -8 0 -14 5 -14 11 0 5 5
7 12 3 7 -4 8 -3 4 4 -4 6 -13 9 -20 6 -7 -3 -16 2 -20 11 -3 9 -2 13 4 10 6
-3 10 -1 10 4 0 6 -6 11 -12 11 -9 0 -9 3 -3 8 6 4 10 14 10 22 -1 8 4 21 9
29 8 10 8 15 -2 18 -6 3 -10 9 -6 14 11 18 13 68 3 75 -6 4 -6 11 2 20 6 8 7
14 2 14 -13 0 -14 40 -1 64 10 18 9 19 -4 9 -19 -16 -32 -5 -16 14 9 11 9 17
-3 24 -8 5 -9 9 -3 9 12 0 12 36 -1 47 -4 5 -5 2 0 -6 5 -9 4 -12 -2 -8 -6 4
-8 19 -5 33 3 19 1 25 -7 20 -15 -9 -14 7 1 22 9 9 9 12 -1 12 -7 0 -10 4 -7
9 3 5 -1 11 -9 15 -8 3 -12 11 -9 19 3 8 -2 20 -11 27 -8 7 -15 18 -15 24 0 6
5 4 10 -4 8 -12 10 -12 10 -1 0 8 -8 20 -17 28 -10 8 -12 11 -4 7 10 -5 12 -3
5 7 -4 8 -9 20 -10 27 -2 8 -6 17 -10 20 -4 4 -4 -1 -1 -11 4 -10 3 -16 -3
-12 -5 3 -12 21 -16 40 -3 19 -10 32 -15 29 -5 -3 -9 2 -9 10 0 9 -5 16 -11
16 -8 0 -8 5 1 15 10 12 9 15 -4 15 -10 0 -14 5 -11 10 3 6 -1 10 -10 10 -9 0
-13 5 -10 10 3 6 1 10 -5 10 -6 0 -8 5 -5 10 3 6 1 10 -5 10 -6 0 -8 5 -5 10
3 6 -1 10 -10 10 -9 0 -13 5 -10 10 3 6 1 10 -5 10 -6 0 -8 5 -4 12 5 8 2 9
-10 5 -9 -4 -15 -3 -11 2 3 6 -3 14 -12 20 -10 6 -14 11 -10 11 4 0 3 9 -3 21
-9 16 -14 18 -26 8 -12 -10 -13 -9 -9 3 4 9 -1 18 -9 21 -9 4 -16 14 -16 24 0
15 -2 16 -10 3 -8 -13 -10 -13 -10 2 0 19 -33 41 -45 30 -5 -4 -6 -2 -3 3 5 9
-35 56 -47 55 -21 -1 -25 2 -25 18 0 14 -2 15 -10 2 -8 -13 -10 -12 -10 4 0
12 -5 16 -15 12 -9 -3 -15 0 -15 9 0 8 -5 15 -11 15 -5 0 -7 -5 -3 -12 4 -7 3
-8 -4 -4 -7 4 -12 14 -12 22 0 8 -5 14 -11 14 -5 0 -7 -5 -3 -12 4 -7 3 -8 -5
-4 -6 4 -9 11 -6 16 3 4 2 10 -2 13 -5 2 -2 2 6 0 11 -3 12 -1 1 12 -10 12 -9
15 6 16 14 1 13 3 -6 9 -20 6 -21 8 -6 9 15 1 17 4 9 12 -6 6 -9 18 -6 25 3 8
-1 22 -8 31 -12 15 -12 16 5 10 17 -7 17 -6 5 10 -12 15 -12 16 4 10 11 -4 16
-3 12 3 -3 6 -14 10 -23 11 -14 0 -14 2 2 8 13 5 16 10 8 15 -6 3 -9 13 -5 21
3 9 -1 23 -8 32 -12 15 -12 16 5 10 17 -7 17 -6 5 10 -12 15 -12 16 4 10 25
-10 21 2 -5 13 -20 7 -20 9 -4 9 16 1 17 3 5 18 -10 11 -10 14 -1 9 17 -10 15
5 -5 34 -16 22 -16 23 2 17 16 -7 16 -5 4 10 -12 15 -12 16 4 10 25 -10 21 2
-5 13 -19 7 -19 9 -5 9 11 1 15 5 11 13 -12 19 -13 68 -1 61 6 -3 7 -1 3 5 -4
7 -1 12 6 13 10 0 10 2 1 6 -7 2 -13 15 -13 28 0 13 -6 26 -12 28 -8 3 -5 6 5
6 12 1 15 5 10 14 -9 14 -6 104 4 120 3 6 1 7 -5 3 -11 -7 -9 31 4 72 2 8 -1
10 -8 6 -8 -5 -9 -2 -5 10 4 10 7 22 7 27 0 6 4 7 10 4 6 -4 7 1 3 11 -5 14
-3 16 12 10 11 -4 16 -4 13 0 -10 9 15 32 29 27 7 -3 13 -1 13 5 0 5 9 12 21
15 14 4 18 10 13 19 -6 10 -3 9 10 -1 15 -12 17 -12 14 0 -2 9 4 13 15 11 10
-2 16 2 15 9 -2 7 11 16 27 19 18 4 29 12 27 19 -2 9 3 11 13 7 9 -3 24 3 35
14 11 11 27 20 36 20 9 0 12 5 8 12 -5 8 -2 9 9 5 12 -4 17 -1 17 10 0 9 3 13
7 10 3 -4 15 1 26 10 11 10 17 13 14 6 -4 -6 -2 -15 4 -19 8 -4 9 -3 5 4 -4 7
-2 12 4 12 6 0 9 4 5 9 -3 5 -1 12 5 16 5 3 10 1 10 -4 0 -6 4 -11 10 -11 5 0
6 7 3 17 -4 10 -2 14 4 10 14 -9 45 2 38 13 -3 5 11 14 30 20 21 7 32 16 29
22 -4 7 -2 8 4 4 14 -8 64 23 56 35 -3 5 3 6 12 2 11 -4 15 -3 11 4 -5 7 1 9
15 5 13 -3 19 -1 15 5 -4 6 0 14 9 17 10 4 13 2 9 -7 -4 -6 3 -1 15 13 12 14
18 18 14 10 -6 -12 -3 -11 12 2 22 19 74 14 74 -8 0 -8 6 -11 17 -7 11 5 14 3
8 -6 -6 -10 -2 -11 15 -6 17 5 21 4 15 -6 -6 -8 -4 -11 6 -7 17 6 41 -16 31
-28 -4 -5 -1 -4 7 3 11 9 17 9 27 -2 8 -7 24 -11 36 -8 19 4 20 3 8 -6 -12 -8
-8 -11 20 -12 19 -1 39 -1 44 0 5 1 3 -6 -5 -15 -13 -16 -12 -16 9 -5 13 7 22
8 22 2 0 -5 9 -8 20 -6 11 2 20 -2 20 -8 0 -7 4 -6 10 3 6 10 10 11 10 3 0 -7
7 -13 16 -13 9 0 12 5 8 12 -4 7 -3 8 4 4 7 -4 12 -15 12 -24 0 -13 2 -13 16
4 8 10 13 13 9 7 -3 -7 0 -13 7 -14 7 0 23 -2 35 -3 12 -1 20 1 17 6 -3 4 0 8
5 8 6 0 11 -4 11 -10 0 -5 9 -10 20 -10 11 0 20 5 20 11 0 6 8 3 18 -8 9 -10
14 -14 9 -7 -4 7 -1 14 7 17 9 4 18 2 21 -3 9 -14 49 -12 64 3 11 10 13 10 7
0 -5 -8 -1 -13 9 -13 9 0 14 4 11 8 -3 5 1 9 9 9 8 0 11 -5 8 -11 -3 -6 0 -5
8 2 7 6 17 12 22 12 4 0 5 -6 1 -12 -5 -9 -2 -9 9 1 9 7 17 10 17 5 0 -4 7 1
16 12 8 10 13 14 10 8 -3 -7 1 -14 9 -18 8 -3 14 0 12 6 -1 7 8 12 20 13 12 0
25 3 29 7 4 4 14 2 22 -5 11 -8 14 -8 9 0 -4 6 -3 14 3 18 5 3 10 0 10 -7 0
-10 2 -10 9 1 5 8 16 11 24 8 9 -3 27 3 40 13 13 11 27 17 30 14 3 -3 23 7 44
22 21 16 34 22 28 14 -5 -9 -2 -7 8 3 12 14 17 15 18 6 0 -11 2 -11 6 -1 2 6
9 10 14 6 5 -3 9 2 9 10 0 8 10 16 23 18 12 2 21 9 19 16 -1 8 2 11 8 7 5 -3
22 1 37 9 16 8 24 15 19 16 -6 0 -1 7 10 15 22 17 54 20 54 5z m-3085 -600 c3
-5 1 -10 -4 -10 -6 0 -11 5 -11 10 0 6 2 10 4 10 3 0 8 -4 11 -10z m0 -80 c3
-5 1 -10 -4 -10 -6 0 -11 5 -11 10 0 6 2 10 4 10 3 0 8 -4 11 -10z m0 -80 c3
-5 1 -10 -4 -10 -6 0 -11 5 -11 10 0 6 2 10 4 10 3 0 8 -4 11 -10z m0 -80 c3
-5 1 -10 -4 -10 -6 0 -11 5 -11 10 0 6 2 10 4 10 3 0 8 -4 11 -10z m0 -80 c3
-5 1 -10 -4 -10 -6 0 -11 5 -11 10 0 6 2 10 4 10 3 0 8 -4 11 -10z m-18 -811
c-12 -7 -13 -14 -4 -33 7 -13 16 -22 22 -18 5 3 4 -2 -4 -11 -7 -9 -11 -22 -9
-29 3 -7 2 -22 -2 -33 -4 -11 -3 -26 4 -34 9 -12 7 -13 -9 -8 -17 6 -18 5 -5
-5 18 -15 25 -58 9 -58 -5 0 -7 5 -3 12 4 7 3 8 -5 4 -8 -5 -7 -13 4 -29 18
-26 19 -37 3 -33 -7 1 -10 1 -5 -1 4 -3 4 -10 1 -15 -4 -7 -2 -8 4 -4 8 5 12
0 12 -13 0 -12 -5 -21 -12 -21 -6 0 -3 -7 8 -16 19 -15 19 -16 -1 -9 -11 3
-16 3 -12 -1 4 -4 2 -13 -5 -21 -8 -10 -8 -17 0 -25 14 -14 -2 -38 -25 -38 -8
0 -11 -5 -7 -11 5 -8 -1 -10 -19 -7 -18 4 -24 1 -20 -9 3 -7 -2 -13 -11 -13
-9 0 -16 -6 -16 -12 0 -10 -2 -10 -9 0 -7 11 -9 10 -14 -3 -4 -9 -20 -21 -37
-26 -18 -7 -27 -15 -23 -22 4 -7 0 -7 -9 1 -13 10 -18 10 -24 1 -5 -8 -3 -9 6
-4 9 6 11 4 5 -4 -4 -7 -16 -11 -26 -8 -11 3 -17 1 -14 -3 3 -5 0 -12 -6 -16
-16 -9 -28 14 -23 44 3 14 -1 29 -8 33 -10 7 -10 9 2 9 10 0 16 12 17 37 1 20
8 40 15 44 10 7 10 9 1 9 -7 0 -13 5 -13 11 0 5 5 7 12 3 8 -5 9 -2 5 9 -3 10
-3 17 1 17 7 0 12 20 15 63 1 10 9 17 22 17 11 0 16 4 10 8 -15 11 -17 32 -2
32 6 0 17 11 24 25 6 14 8 23 4 20 -4 -2 -8 2 -8 9 0 8 6 12 12 9 7 -2 15 7
19 22 4 14 11 23 16 20 5 -3 12 5 16 17 3 13 20 35 36 49 20 19 25 29 16 32
-7 3 -3 6 10 6 14 1 20 5 17 12 -4 6 2 13 14 16 12 3 21 10 21 15 0 5 5 6 11
2 8 -5 7 -9 -4 -15z m1110 -14 c-1 -5 4 -9 11 -7 8 1 11 -2 7 -8 -3 -5 -1 -10
4 -10 6 0 11 -10 11 -22 0 -13 3 -18 8 -12 4 7 15 1 30 -18 14 -16 18 -28 11
-28 -7 0 -9 -3 -5 -7 4 -5 12 -8 17 -8 5 0 8 -4 7 -8 -2 -5 8 -15 22 -24 14
-8 17 -12 8 -9 -10 3 -18 1 -18 -4 0 -6 6 -10 14 -10 8 0 17 -11 20 -25 4 -14
12 -25 19 -25 8 0 7 -4 -3 -10 -11 -7 -11 -10 -2 -10 7 0 10 -4 7 -10 -3 -5 1
-10 9 -10 9 0 16 -4 16 -10 0 -5 -8 -7 -17 -3 -12 4 -10 -1 7 -16 14 -12 19
-20 13 -16 -7 3 -13 1 -13 -4 0 -10 14 -15 33 -12 5 1 6 -3 2 -8 -3 -6 -13 -7
-23 -4 -16 5 -16 5 1 -8 10 -9 18 -30 20 -56 1 -30 7 -43 17 -44 8 0 10 -3 4
-5 -12 -5 -7 -52 8 -71 6 -7 5 -14 -2 -18 -6 -4 -9 -13 -6 -21 3 -8 0 -11 -9
-7 -8 3 -12 10 -8 16 4 6 0 8 -10 4 -12 -4 -17 -1 -17 11 0 13 -2 14 -9 4 -6
-11 -10 -10 -15 3 -3 10 -12 15 -21 11 -10 -3 -15 1 -15 12 0 15 -2 15 -10 2
-8 -13 -10 -12 -10 3 0 9 -6 16 -12 15 -7 -2 -12 3 -10 10 3 15 -10 16 -25 1
-7 -7 -18 -1 -36 20 -16 20 -27 26 -30 18 -3 -7 -6 -4 -6 6 -1 10 -5 15 -11
12 -5 -3 -10 -1 -10 4 0 6 -6 11 -13 11 -10 0 -12 12 -7 49 3 28 3 48 -2 45
-7 -5 -2 41 8 74 2 7 -1 10 -6 7 -6 -3 -10 -1 -10 4 0 6 5 11 11 11 7 0 4 11
-6 27 -17 25 -17 26 0 19 16 -6 16 -4 4 11 -12 15 -12 16 4 10 25 -10 21 2 -5
13 -19 7 -19 9 -5 9 11 1 15 5 11 13 -4 6 -8 24 -9 39 -2 21 1 26 14 22 14 -4
14 -3 1 6 -8 6 -12 11 -8 11 4 0 3 11 -2 25 -9 24 -8 25 20 23 16 -1 28 -7 27
-13z m-1092 -5 c3 -6 -1 -7 -9 -4 -18 7 -21 14 -7 14 6 0 13 -4 16 -10z m1039
-16 c3 -8 2 -12 -4 -9 -6 3 -10 10 -10 16 0 14 7 11 14 -7z m-1048 -343 c-4
-5 0 -12 6 -14 8 -3 6 -6 -4 -6 -18 -1 -24 10 -11 22 9 10 15 8 9 -2z m-1166
-1067 c0 -8 -19 -13 -24 -6 -3 5 1 9 9 9 8 0 15 -2 15 -3z"/>
<path d="M4796 6622 c-3 -5 1 -9 9 -9 8 0 12 4 9 9 -3 4 -7 8 -9 8 -2 0 -6 -4
-9 -8z"/>
<path d="M2351 6004 c0 -11 3 -14 6 -6 3 7 2 16 -1 19 -3 4 -6 -2 -5 -13z"/>
<path d="M2351 5604 c0 -11 3 -14 6 -6 3 7 2 16 -1 19 -3 4 -6 -2 -5 -13z"/>
<path d="M3105 4290 c-3 -5 -1 -10 4 -10 6 0 11 5 11 10 0 6 -2 10 -4 10 -3 0
-8 -4 -11 -10z"/>
<path d="M4936 4563 c-6 -14 -5 -15 5 -6 7 7 10 15 7 18 -3 3 -9 -2 -12 -12z"/>
<path d="M3495 3180 c3 -5 8 -10 11 -10 2 0 4 5 4 10 0 6 -5 10 -11 10 -5 0
-7 -4 -4 -10z"/>
<path d="M3563 2247 c0 -8 6 -14 14 -14 9 0 10 4 2 14 -6 7 -12 13 -14 13 -1
0 -2 -6 -2 -13z"/>
<path d="M2860 1780 c-9 -6 -10 -10 -3 -10 6 0 15 5 18 10 8 12 4 12 -15 0z"/>
<path d="M1700 536 c0 -2 7 -9 15 -16 9 -7 15 -8 15 -2 0 5 -7 12 -15 16 -8 3
-15 4 -15 2z"/>
<path d="M4846 1483 c-6 -14 -5 -15 5 -6 7 7 10 15 7 18 -3 3 -9 -2 -12 -12z"/>
<path d="M6310 799 c0 -5 5 -7 10 -4 6 3 10 8 10 11 0 2 -4 4 -10 4 -5 0 -10
-5 -10 -11z"/>
<path d="M4390 1256 c0 -2 8 -10 18 -17 15 -13 16 -12 3 4 -13 16 -21 21 -21
13z"/>
<path d="M1804 5465 c-5 -11 -11 -12 -25 -4 -14 7 -19 6 -19 -2 0 -7 -3 -9 -7
-6 -3 4 -13 1 -21 -6 -9 -6 -13 -7 -9 -1 3 6 0 11 -8 11 -8 0 -12 -4 -9 -9 7
-11 -3 -10 -29 4 -20 10 -21 10 -9 -5 12 -14 11 -16 -8 -12 -28 5 -51 -4 -43
-19 4 -6 1 -6 -9 2 -13 10 -17 10 -22 -4 -4 -9 -9 -14 -13 -11 -3 4 -13 1 -21
-6 -13 -9 -14 -9 -8 1 4 6 2 12 -3 12 -6 0 -11 -4 -11 -9 0 -5 -7 -12 -16 -15
-10 -4 -13 -2 -9 7 4 6 -3 1 -14 -12 -12 -13 -21 -18 -21 -12 0 9 -5 9 -20 1
-11 -6 -18 -15 -15 -21 8 -12 -18 -7 -27 6 -4 6 -8 2 -8 -8 0 -10 -4 -16 -8
-13 -12 7 -63 -39 -54 -49 4 -4 -4 -2 -18 5 -24 13 -24 12 -10 -5 8 -10 10
-16 3 -12 -14 9 -64 -13 -57 -24 3 -5 0 -10 -5 -10 -6 -1 -15 -2 -20 -3 -5 0
-13 -5 -18 -10 -5 -5 -3 -6 5 -2 6 4 12 2 12 -3 0 -6 -5 -11 -11 -11 -16 0
-39 -26 -31 -36 4 -5 -1 -2 -11 6 -10 7 -17 9 -16 4 4 -23 -2 -33 -18 -27 -9
4 -14 2 -10 -3 3 -6 -5 -18 -19 -28 -13 -11 -24 -24 -24 -30 0 -6 -12 -22 -27
-36 -15 -14 -23 -19 -18 -11 6 10 4 12 -4 7 -9 -6 -9 -11 1 -24 11 -14 10 -15
-6 -9 -14 6 -17 4 -12 -8 3 -8 1 -15 -5 -15 -5 0 -14 -11 -21 -25 -6 -13 -16
-22 -21 -18 -6 4 -8 0 -4 -10 3 -10 2 -17 -4 -17 -6 0 -7 -4 -4 -10 3 -5 -1
-10 -11 -10 -13 0 -14 -3 -4 -15 12 -15 11 -16 -10 -19 -5 0 -10 -5 -9 -10 0
-5 -5 -13 -13 -17 -10 -7 -10 -9 0 -9 7 0 10 -5 7 -10 -4 -6 -11 -8 -16 -5 -5
4 -9 -3 -9 -14 0 -31 -11 -52 -24 -44 -6 4 -4 -2 4 -12 12 -15 12 -17 1 -10
-11 6 -13 4 -8 -8 3 -9 -1 -18 -11 -22 -14 -5 -14 -7 -2 -15 11 -7 12 -10 2
-10 -7 0 -11 -4 -8 -9 4 -5 0 -12 -6 -14 -10 -4 -10 -6 0 -6 10 -1 10 -6 2
-21 -6 -11 -16 -18 -21 -14 -7 4 -7 0 0 -14 8 -15 8 -22 -2 -25 -9 -4 -9 -6 1
-6 6 -1 12 -5 12 -11 0 -5 -8 -6 -18 -3 -14 6 -15 4 -5 -8 8 -9 9 -20 3 -29
-14 -21 -12 -32 3 -24 9 6 9 4 1 -7 -15 -19 -26 -51 -16 -45 5 3 9 -2 9 -10 0
-9 -6 -13 -16 -9 -13 5 -14 4 -3 -6 6 -7 12 -17 12 -22 0 -4 -6 -5 -12 -1 -10
6 -10 4 0 -7 6 -7 12 -17 12 -22 0 -4 -6 -5 -12 -1 -9 5 -9 2 1 -9 11 -14 11
-17 0 -17 -8 0 -6 -5 6 -13 14 -11 15 -16 5 -22 -9 -6 -11 -4 -5 5 5 8 4 11
-3 6 -6 -4 -9 -13 -6 -21 4 -8 10 -13 14 -10 11 7 7 -39 -5 -47 -6 -5 -5 -8 3
-8 6 0 12 -4 12 -10 0 -5 -3 -9 -8 -7 -4 1 -7 -2 -7 -8 0 -5 4 -9 8 -7 4 1 6
-10 5 -25 -2 -20 1 -27 11 -25 12 3 12 1 1 -14 -12 -14 -12 -18 5 -31 16 -12
16 -14 3 -10 -12 4 -15 2 -11 -9 3 -7 9 -14 14 -14 5 0 9 -5 9 -11 0 -5 -4 -8
-9 -5 -5 4 -4 -7 2 -23 6 -17 16 -27 21 -23 6 3 4 -3 -4 -13 -12 -15 -12 -17
-1 -10 11 6 13 3 9 -13 -4 -15 0 -25 10 -32 13 -7 14 -9 3 -10 -11 0 -11 -3 3
-13 9 -7 16 -19 14 -26 -2 -7 3 -16 10 -18 6 -3 12 1 12 9 0 10 3 9 10 -2 9
-13 12 -13 24 3 15 19 31 23 20 5 -5 -9 -3 -9 9 1 9 7 15 17 12 21 -3 4 2 11
11 14 10 4 13 2 9 -7 -4 -6 3 -1 15 13 12 14 18 18 14 10 -6 -12 -3 -11 12 2
10 9 23 18 29 20 5 2 9 7 7 11 -1 4 6 7 15 5 11 -2 17 2 15 11 -3 12 -1 12 13
1 9 -7 15 -9 13 -4 -2 5 1 10 6 11 16 3 25 27 16 44 -5 9 -6 20 -2 24 4 5 1 5
-5 1 -9 -5 -13 1 -13 19 0 18 -4 24 -12 19 -10 -6 -10 -5 -1 7 10 12 9 20 -4
39 -9 13 -12 21 -6 17 5 -3 10 0 10 8 0 8 -5 13 -10 12 -5 -1 -12 4 -14 11 -3
6 1 12 8 12 7 0 5 6 -7 15 -19 15 -19 15 1 8 18 -6 18 -5 6 10 -7 9 -11 26 -8
37 3 10 2 18 -2 17 -3 -1 -6 3 -6 8 0 6 6 9 15 7 13 -2 13 -1 0 10 -19 16 -20
68 -2 87 10 10 10 16 1 27 -8 10 -8 14 0 14 6 0 11 5 11 11 0 5 -6 7 -12 3 -8
-5 -7 0 2 11 8 10 14 20 13 22 -2 1 -3 6 -2 11 1 4 0 20 -1 36 -1 18 2 26 9
22 7 -5 11 4 11 24 0 18 6 33 15 37 9 3 15 13 14 22 -3 24 12 52 24 44 5 -3 7
-1 4 4 -8 13 12 73 24 73 5 0 9 9 9 20 0 11 6 19 13 17 6 -1 11 6 11 15 -1 10
2 15 7 12 5 -3 17 0 26 6 17 11 17 11 1 6 -10 -3 -18 -1 -18 4 0 5 9 12 20 15
11 4 17 11 14 17 -5 7 -1 9 9 5 11 -4 14 -2 10 9 -3 7 0 14 7 14 6 0 8 5 5 10
-4 6 -3 10 2 9 20 -3 33 2 31 14 -2 7 6 11 20 11 18 -1 20 1 11 12 -8 10 -8
14 0 15 6 1 16 2 22 3 6 0 16 9 23 18 7 10 16 15 19 11 4 -3 7 1 7 10 0 9 5
17 11 17 5 0 8 -4 5 -8 -3 -5 1 -9 8 -9 8 0 12 6 9 14 -3 7 2 13 12 13 9 0 14
4 11 9 -4 5 5 8 20 6 16 -1 30 4 37 15 6 10 17 15 25 12 11 -4 13 -1 7 9 -7
11 -5 11 10 -1 10 -8 16 -10 12 -4 -10 16 18 25 33 11 10 -9 11 -9 6 0 -3 6
-2 14 4 18 5 3 10 1 10 -5 0 -6 5 -8 10 -5 6 4 8 11 5 16 -3 5 2 6 11 2 10 -3
15 -2 12 3 -4 5 4 9 17 9 13 0 21 -3 19 -7 -3 -4 2 -5 10 -2 9 3 14 10 11 14
-3 5 -1 11 4 14 5 4 13 1 17 -5 4 -8 3 -9 -4 -5 -8 5 -10 2 -6 -9 8 -20 12
-16 24 24 5 18 5 33 -1 36 -5 4 -9 11 -9 16 0 6 4 7 10 4 7 -4 7 3 0 19 -7 19
-6 26 2 26 9 0 9 3 0 12 -13 13 -17 32 -4 25 4 -3 7 10 7 29 0 19 -4 34 -9 34
-5 0 -2 8 5 17 10 11 10 14 2 9 -7 -4 -13 -2 -13 3 0 6 5 11 10 11 14 0 12 16
-5 33 -8 8 -11 17 -8 21 4 3 3 6 -1 6 -3 0 -9 -7 -12 -15z m-684 -1029 c0 -3
-4 -8 -10 -11 -5 -3 -10 -1 -10 4 0 6 5 11 10 11 6 0 10 -2 10 -4z m44 -392
c3 -8 2 -12 -4 -9 -6 3 -10 10 -10 16 0 14 7 11 14 -7z"/>
<path d="M5793 5469 c4 -12 -1 -14 -25 -11 -30 5 -53 -13 -41 -31 10 -17 8
-87 -2 -88 -5 0 -1 -4 10 -9 19 -8 19 -9 1 -9 -16 -1 -17 -3 -5 -18 8 -9 10
-14 4 -11 -6 4 -10 -13 -10 -42 0 -27 3 -43 8 -37 4 7 5 -5 1 -25 -5 -33 -4
-36 14 -31 11 2 23 0 26 -6 5 -8 13 -8 26 -1 13 7 21 7 26 -2 5 -7 3 -8 -7 -3
-12 8 -12 6 0 -8 12 -15 31 -15 31 -1 0 3 -5 2 -12 -2 -7 -5 -8 -3 -3 6 6 10
11 9 22 -5 9 -13 13 -14 13 -5 0 9 5 8 16 -6 8 -10 12 -12 8 -4 -7 13 -5 13 9
2 9 -8 22 -10 28 -6 8 4 9 3 5 -4 -5 -8 2 -12 19 -12 14 0 28 -7 32 -16 3 -8
12 -13 19 -10 8 3 14 1 14 -5 0 -6 7 -9 15 -5 13 5 19 -5 17 -25 -1 -4 9 -5
21 -2 18 4 19 3 7 -6 -12 -9 -9 -11 15 -11 23 0 27 -3 15 -10 -12 -8 -11 -10
7 -10 12 0 25 -5 29 -12 5 -7 3 -8 -6 -3 -8 5 -11 4 -6 -3 3 -6 15 -9 25 -7
14 3 19 -1 16 -15 -3 -14 1 -17 18 -13 16 4 18 2 8 -5 -11 -8 -9 -11 8 -17 11
-3 21 -13 21 -21 0 -8 5 -12 10 -9 6 3 10 -1 10 -10 0 -9 5 -13 10 -10 6 4 10
3 9 -2 -4 -23 2 -35 17 -29 8 3 12 2 9 -3 -7 -13 16 -62 26 -55 5 3 9 -4 9
-16 0 -12 5 -18 10 -15 6 3 10 0 10 -9 0 -8 6 -17 13 -19 10 -4 10 -6 0 -6 -7
-1 -13 -5 -13 -11 0 -5 6 -9 13 -7 6 1 11 -4 10 -10 -2 -7 2 -13 8 -13 6 0 8
-9 4 -20 -4 -14 -2 -20 7 -18 8 2 14 -10 16 -35 2 -20 7 -35 13 -32 13 9 11
-9 -3 -24 -10 -11 -10 -13 0 -7 6 4 12 4 13 -1 3 -44 10 -68 21 -74 9 -6 7 -9
-7 -9 -17 0 -17 -2 -5 -10 13 -9 13 -10 0 -10 -12 0 -12 -2 -2 -8 7 -5 15 -30
17 -56 4 -38 2 -51 -12 -62 -11 -9 -13 -13 -4 -12 7 2 15 -5 16 -14 2 -11 -2
-15 -13 -11 -11 5 -13 3 -7 -8 12 -18 14 -49 4 -55 -4 -2 -6 -13 -4 -24 2 -11
0 -20 -5 -20 -4 0 -11 -7 -14 -16 -5 -14 -4 -15 9 -4 13 11 14 10 9 -4 -3 -9
-11 -16 -18 -16 -6 0 -4 -5 4 -10 12 -7 10 -11 -10 -19 -14 -5 -20 -10 -13
-10 13 -1 11 -46 -2 -59 -4 -4 -5 -2 -1 5 3 6 2 14 -3 17 -5 4 -8 -2 -6 -11 2
-10 4 -21 4 -25 1 -4 8 -4 18 -1 12 5 14 3 8 -7 -6 -10 -4 -12 8 -7 12 4 14 2
10 -10 -4 -10 -2 -14 4 -10 6 4 16 0 23 -8 7 -8 16 -13 20 -10 5 3 15 -1 23
-9 8 -8 17 -12 21 -9 3 4 6 -2 6 -13 0 -11 3 -15 8 -8 8 13 44 15 36 2 -3 -5
-11 -5 -17 -2 -9 5 -9 4 -1 -5 6 -7 21 -13 33 -14 11 -1 21 -7 21 -14 0 -16
12 -17 29 0 10 10 11 8 5 -8 -7 -17 -6 -18 8 -5 9 8 14 18 12 21 -2 4 5 18 16
32 13 17 17 28 10 32 -7 5 -5 11 6 19 11 9 15 21 11 35 -3 11 -1 21 4 21 4 0
5 7 2 17 -5 12 -3 14 8 8 12 -7 12 -6 1 7 -10 13 -10 18 -1 24 8 5 10 3 4 -7
-5 -8 -4 -11 1 -6 5 5 10 34 11 65 3 80 6 95 22 108 11 9 12 12 1 19 -8 5 -11
4 -7 -2 3 -5 -1 -10 -9 -10 -10 0 -8 7 8 25 13 14 18 22 12 19 -15 -9 -27 20
-12 29 7 5 8 2 3 -6 -5 -9 -4 -11 4 -6 8 6 9 12 2 20 -7 9 -7 17 2 26 9 10 9
11 0 6 -7 -4 -13 -3 -13 1 0 5 6 15 13 22 7 9 7 11 1 8 -7 -4 -14 0 -18 8 -3
8 -1 15 5 15 6 0 9 8 7 18 -1 9 1 22 5 29 5 7 -1 21 -13 33 -12 12 -15 20 -7
21 6 0 3 4 -8 9 -11 5 -15 9 -8 9 6 1 10 9 8 19 -2 9 -4 23 -4 30 -1 7 -5 10
-11 7 -5 -3 -7 0 -4 8 3 8 1 18 -4 21 -5 3 -7 18 -4 32 3 19 1 25 -7 20 -7 -5
-11 4 -11 29 0 20 -4 34 -8 31 -4 -2 -9 4 -9 15 -1 12 2 17 10 13 7 -4 8 -3 4
2 -5 5 -14 9 -20 9 -7 0 -12 7 -13 15 -2 35 -5 41 -14 35 -5 -3 -7 0 -4 8 3 8
-5 25 -18 37 -13 13 -17 20 -11 16 9 -5 11 -2 7 8 -3 9 -12 16 -20 16 -8 0
-14 5 -14 11 0 5 6 7 13 4 6 -4 4 0 -5 8 -10 8 -18 19 -18 26 0 6 -4 11 -10
11 -5 0 -10 9 -10 20 0 12 -7 20 -17 20 -9 0 -14 3 -10 6 8 8 -16 33 -26 27
-4 -2 -7 -1 -6 4 3 18 -1 34 -8 30 -5 -3 -13 1 -20 8 -10 11 -10 15 0 18 10 5
-16 11 -34 9 -4 -1 -4 8 -1 20 3 14 1 19 -6 14 -7 -4 -12 -2 -12 4 0 7 -7 10
-15 6 -8 -3 -14 -2 -14 2 3 21 -2 32 -13 26 -8 -5 -9 -2 -5 9 3 10 2 17 -3 17
-6 0 -10 -4 -10 -10 0 -5 -18 7 -39 28 -56 53 -68 62 -75 55 -3 -4 -6 1 -6 10
0 10 -4 17 -10 17 -6 0 -9 -4 -7 -9 1 -5 -2 -9 -8 -10 -5 -1 -10 2 -10 7 0 13
-16 32 -37 43 -14 8 -18 8 -14 0 11 -17 -26 0 -48 22 -15 15 -20 16 -27 5 -8
-12 -13 -5 -10 14 0 4 -7 7 -17 7 -43 2 -60 6 -56 12 6 10 -22 19 -46 14 -11
-2 -20 -1 -20 3 0 4 -10 8 -22 9 -11 1 -25 8 -29 15 -7 10 -9 10 -9 -2 0 -9
-3 -11 -8 -5 -11 15 -32 17 -32 3 -1 -7 -8 -2 -16 12 -8 14 -13 18 -11 9z
m961 -991 c-10 -16 -22 -7 -17 13 4 15 8 17 14 8 4 -7 5 -17 3 -21z"/>
<path d="M6439 4398 c-6 -20 -5 -38 1 -48 5 -7 7 0 6 19 -1 26 -4 39 -7 29z"/>
<path d="M1113 4375 c0 -8 4 -12 9 -9 5 3 6 10 3 15 -9 13 -12 11 -12 -6z"/>
<path d="M6046 3978 c3 -5 10 -6 15 -3 13 9 11 12 -6 12 -8 0 -12 -4 -9 -9z"/>
<path d="M6760 700 c-8 -5 -12 -12 -9 -15 4 -3 12 1 19 10 14 17 11 19 -10 5z"/>
<path d="M4418 615 c-6 -13 -15 -22 -19 -19 -5 3 -9 -2 -9 -10 0 -9 -7 -16
-15 -16 -8 0 -15 -9 -15 -20 0 -13 -9 -22 -26 -26 -19 -5 -22 -9 -12 -15 9 -6
7 -9 -10 -9 -15 0 -21 -4 -16 -12 5 -7 0 -9 -14 -6 -13 4 -19 2 -16 -6 3 -7
-7 -18 -20 -26 -14 -7 -23 -16 -21 -20 2 -4 -2 -7 -10 -7 -8 0 -12 4 -9 9 3 4
0 8 -5 8 -6 0 -11 -7 -11 -15 0 -8 -7 -15 -16 -15 -9 0 -12 -5 -8 -12 5 -8 0
-7 -11 2 -11 9 -16 10 -11 3 4 -8 2 -13 -4 -13 -6 0 -8 -5 -4 -12 5 -9 2 -9
-9 1 -15 12 -17 11 -17 -4 0 -14 -3 -15 -14 -6 -12 10 -17 8 -27 -11 -7 -13
-14 -18 -16 -11 -3 8 -11 8 -30 -2 -15 -8 -30 -12 -35 -9 -4 3 -8 1 -8 -4 0
-5 -10 -8 -22 -8 -13 1 -35 -4 -50 -11 -32 -15 -48 -14 -65 7 -12 13 -12 13
-8 0 4 -12 -5 -15 -50 -16 -32 0 -55 4 -55 10 0 7 -3 8 -8 1 -4 -5 -19 -10
-35 -11 -20 -1 -24 2 -17 11 7 9 2 11 -18 10 -16 -1 -35 -5 -43 -10 -12 -8
-12 -6 -1 8 12 15 11 15 -19 7 -17 -5 -29 -7 -26 -3 11 11 -27 32 -43 24 -15
-8 -62 11 -60 24 1 3 -1 9 -4 12 -3 4 -6 1 -6 -7 0 -10 -3 -10 -15 0 -8 6 -20
8 -27 4 -11 -6 -11 -5 0 8 10 13 9 15 -13 13 -16 -2 -25 2 -25 11 0 8 -6 11
-17 7 -9 -4 -14 -2 -11 3 3 5 0 14 -7 21 -11 10 -15 10 -18 0 -3 -7 -6 -4 -6
7 -1 12 -6 16 -17 12 -8 -3 -12 -2 -9 4 3 6 -1 10 -10 10 -9 0 -13 4 -10 10 3
5 -1 10 -10 10 -8 0 -18 7 -22 16 -3 8 -12 13 -19 10 -8 -3 -11 0 -7 10 4 10
-2 17 -16 21 -11 3 -18 9 -15 14 3 5 -3 9 -13 10 -10 0 -13 3 -5 6 6 2 12 9
12 14 0 6 -4 7 -10 4 -5 -3 -10 -1 -10 5 0 6 -8 10 -17 8 -10 -1 -24 1 -32 6
-9 6 -12 5 -8 -1 4 -6 -1 -17 -10 -24 -14 -12 -16 -12 -9 0 6 9 5 12 -5 9 -8
-3 -13 -11 -11 -18 2 -8 -4 -11 -17 -7 -22 5 -46 -15 -33 -28 4 -5 0 -6 -9 -3
-9 4 -20 -2 -27 -13 -7 -11 -18 -16 -27 -13 -10 4 -15 0 -15 -10 0 -9 -5 -16
-11 -16 -5 0 -8 4 -5 9 4 5 -5 4 -19 -2 -14 -7 -25 -16 -25 -20 0 -5 4 -6 8
-3 5 3 9 -1 9 -9 0 -8 -4 -12 -9 -9 -13 9 -9 -6 7 -22 8 -9 15 -13 15 -9 0 4
11 -7 25 -23 14 -17 25 -33 25 -37 0 -11 27 -34 33 -28 4 3 5 -4 2 -15 -2 -12
1 -25 7 -28 7 -4 8 -2 4 4 -4 7 -1 12 9 12 9 0 13 -5 10 -10 -3 -6 -1 -10 5
-10 6 0 8 -4 5 -10 -3 -5 1 -10 10 -10 9 0 13 -4 10 -10 -3 -6 1 -7 9 -4 11 4
16 0 16 -11 0 -9 5 -13 10 -10 6 3 10 1 10 -5 0 -6 13 -16 29 -21 21 -8 28
-15 24 -26 -4 -11 -2 -14 5 -9 14 8 55 -17 45 -28 -4 -4 1 -4 11 0 14 5 17 4
12 -5 -5 -8 -3 -12 5 -10 27 3 40 -1 34 -11 -3 -5 3 -10 14 -10 12 0 21 -5 21
-11 0 -8 4 -8 14 0 10 8 16 9 21 1 3 -6 11 -7 17 -4 7 4 8 2 4 -5 -6 -9 -12
-9 -24 1 -15 12 -16 11 -3 -4 7 -10 24 -18 37 -18 12 0 26 -5 29 -10 4 -6 15
-8 26 -5 15 5 18 3 12 -12 -6 -16 -5 -16 10 -4 14 11 17 11 17 0 0 -11 2 -11
10 1 8 13 10 13 10 -2 0 -12 5 -15 17 -11 12 5 14 3 8 -8 -8 -12 -6 -12 8 0
13 11 17 11 17 1 0 -8 3 -10 7 -7 3 4 13 1 21 -6 13 -9 14 -9 8 1 -11 18 14
15 37 -6 11 -9 17 -11 13 -4 -4 6 -2 12 3 12 6 0 11 -5 11 -12 0 -6 7 -3 15 8
14 17 14 17 9 1 -6 -17 1 -18 132 -15 77 2 148 8 159 12 14 5 16 5 7 -2 -10
-7 -5 -9 16 -8 21 1 28 5 24 16 -4 12 -2 13 8 3 11 -10 18 -9 34 5 14 12 17
13 11 2 -7 -12 -6 -13 6 -3 12 10 18 10 28 0 10 -9 11 -8 5 8 -4 11 -4 17 1
13 4 -4 15 -2 23 5 9 6 13 7 9 1 -3 -6 1 -11 9 -11 8 0 13 6 10 14 -5 11 -1
11 15 2 12 -6 19 -7 15 -1 -3 5 1 12 9 16 8 3 15 0 15 -7 0 -7 5 -4 11 5 6 11
16 15 26 11 12 -5 14 -3 8 7 -6 10 -3 12 13 8 14 -4 19 -2 15 8 -3 9 2 12 16
9 14 -3 21 1 21 12 0 13 3 13 16 3 12 -11 15 -11 12 1 -2 8 3 13 10 11 6 -1
12 2 12 8 0 5 7 6 17 3 11 -4 14 -3 9 5 -4 7 -2 12 4 12 6 0 9 4 6 9 -3 4 5 7
19 6 18 -2 22 1 18 13 -4 10 -2 13 5 8 7 -4 12 -2 12 3 0 6 6 11 13 11 7 0 20
9 30 20 9 11 22 18 29 16 7 -1 9 -1 5 2 -11 6 13 32 29 32 8 0 15 5 15 10 1 6
2 14 3 19 2 15 16 26 16 13 0 -7 5 -12 10 -12 6 0 10 8 8 18 -2 9 3 16 9 15 7
-2 12 3 10 10 -1 6 6 11 15 11 14 -1 16 2 7 18 -7 13 -7 18 -1 14 6 -3 18 1
27 10 13 13 13 19 3 32 -10 12 -10 14 0 8 17 -10 38 4 21 15 -11 7 -11 9 -1 9
10 0 10 3 0 14 -7 7 -18 12 -24 9 -7 -2 -15 1 -20 8 -5 8 -3 10 6 4 8 -5 11
-4 6 3 -3 6 -16 9 -27 7 -15 -3 -23 2 -26 15 -3 11 -10 20 -15 20 -5 0 -6 -6
-3 -12 4 -7 -2 -3 -13 10 -11 12 -32 23 -45 24 -14 1 -24 5 -21 9 2 4 -8 15
-22 24 -15 9 -23 12 -20 6 5 -7 1 -9 -8 -5 -9 3 -13 10 -10 15 3 5 3 9 -1 9
-3 0 -10 -11 -17 -25z m-768 -305 c0 -5 -2 -10 -4 -10 -3 0 -8 5 -11 10 -3 6
-1 10 4 10 6 0 11 -4 11 -10z"/>
<path d="M2953 545 c0 -8 4 -12 9 -9 5 3 6 10 3 15 -9 13 -12 11 -12 -6z"/>
<path d="M2927 379 c4 -13 8 -18 11 -10 2 7 -1 18 -6 23 -8 8 -9 4 -5 -13z"/>
</g>
</svg>
